/* XPM */
static char *_c9d362c6bf248068d602c77dcd4c066[] = {
/* columns rows colors chars-per-pixel */
"64 64 38 1 ",
"  c #099A97",
". c #0B9B98",
"X c #0E9C99",
"o c #19A19E",
"O c #1CA29F",
"+ c #1DA2A0",
"@ c #20A4A1",
"# c #29A7A4",
"$ c #2CA8A6",
"% c #33ABA9",
"& c #38ADAB",
"* c #43B2AF",
"= c #45B3B1",
"- c #4BB5B3",
"; c #5BBCBA",
": c #62BEBD",
"> c #6BC2C1",
", c #6EC3C2",
"< c #73C5C4",
"1 c #7BC9C7",
"2 c #7CC9C8",
"3 c #80CBC9",
"4 c #83CCCB",
"5 c #87CDCD",
"6 c #93D3D1",
"7 c #AEDEDD",
"8 c #B1DFDE",
"9 c #B3E0DF",
"0 c #B7E1E0",
"q c #D0ECEB",
"w c #D2ECEC",
"e c #DAF0EF",
"r c #E3F4F3",
"t c #EAF6F6",
"y c #EEF8F8",
"u c #F0F9F9",
"i c #F9FFFF",
"p c white",
/* pixels */
"7O%epppppy*.                                                  +8",
"#  >ppppp6                                                     #",
"o  ;ppppp9                                                     o",
"o  ;ppppppq88888888888888888884114888888888888888888888888<>#  o",
"o  ;ppppppppppppppppppiippppppiiiippppppppppppiipppppppppppp;  o",
"o  ;ppppiiiiiiiiiiiiiiiiiiiiiiiiiiiiiiiiiiiiiiiiiiiiiiiiippp;  o",
"o  ;ppppiiiiiiiiiiiiiiiiiiiiiiiiiiiiiiiiiiiiiiiiiiiiiiiiippp;  o",
"o  ;ppppiiiiiiiiiiiiiiiiiiiiiiiiiiiiiiiiiiiiiiiiiiiiiiiiippp;  o",
"o  ;ppppiiiiiiiiiiiiiiiiiiiiiiiiiiiiiiiiiiiiiiiiiiiiiiiiippp;  o",
"o  ;ppppiiiiiiiiiiiiiiiiiiiiiiiiiiiiiiiiiiiiiiiiiiiiiiiiippp;  o",
"o  ;ppppiiiiiiiiiiiiiiiiiiiiiiiiiiiiiiiiiiiiiiiiiiiiiiiiippp;  o",
"o  ;ppppiiiiiiiiiiiiiiiiiiiiiiiiiiiiiiiiiiiiiiiiiiiiiiiiippp;  o",
"o  ;ppppiiiiiiiiiiiiiiiiiiiiiiiiiiiiiiiiiiiiiiiiiiiiiiiiippp;  o",
"o  ;ppppiiiiiiiiiiiiiiiiiiiiiiiiiiiiiiiiiiiiiiiiiiiiiiiiippp;  o",
"o  ;ppppiiiiiiiiiiiiiiiiiiiiiiiiiiiiiiiiiiiiiiiiiiiiiiiiippp;  o",
"o  ;ppppiiiiiiiiiiiiiiiiiiiiiiiiiiiiiiiiiiiiiiiiiiiiiiiiippp;  o",
"o  ;ppppiiiiiiiiiiiiiiiiiiiiiiiiiiiiiiiiiiiiiiiiiiiiiiiiippp;  o",
"o  ;ppppiiiiiiiiiiiiiiiiiiiiiiiiiiiiiiiiiiiiiiiiiiiiiiiiippp;  o",
"o  ;ppppiiiiiiiiiiiiiiiiiiiiiiiiiiiiiiiiiiiiiiiiiiiiiiiiippp;  o",
"o  ;ppppiiiiiiiiiiiiiiiiiiiiiiiiiiiiiiiiiiiiiiiiiiiiiiiiippp;  o",
"o  ;ppppiiiiiiiiiiiiiiiiiiiiiiiiiiiiiiiiiiiiiiiiiiiiiiiiippp;  o",
"o  ;ppppiiiiiiiiiiiiiiiiiiiiiiiiiiiiiiiiiiiiiiiiiiiiiiiiippp;  o",
"o  ;ppppiiiiiiiiiiiiiiiiiiiiiiiiiiiiiiiiiiiiiiiiiiiiiiiiippp;  o",
"o  ;ppppiiiiiiiiiiiiiiiiiiiiiiiiiiiiiiiiiiiiiiiiiiiiiiiiippp;  o",
"o  ;ppppiiiiiiiiiiiiiiiiiiiiiiiiiiiiiiiiiiiiiiiiiiiiiiiiippp;  o",
"o  ;ppppiiiiiiiiiiiiiiiiiiiiiiiiiiiiiiiiiiiiiiiiiiiiiiiiippp;  o",
"o  ;ppppiiiiiiiiiiiiiiiiiiiiiiiiiiiiiiiiiiiiiiiiiiiiiiiiippp;  o",
"o  ;ppppiiiiiiiiiiiiiiiiiiiiiiiiiiiiiiiiiiiiiiiiiiiiiiiiippp;  o",
"o  ;ppppiiiiiiiiiiiiiiiiiiiiiiiiiiiiiiiiiiiiiiiiiiiiiiiiippp;  o",
"o  ;ppppiiiiiiiiiiiiiiiiiiiiiiiiiiiiiiiiiiiiiiiiiiiiiiiiippp;  o",
"o  ;ppppiiiiiiiiiiiiiiiiiiiiiiiiiiiiiiiiiiiiiiiiiiiiiiiiippp;  o",
"o  ;ppppiiiiiiiiiiiiiiiiiiiiiiiiiiiiiiiiiiiiiiiiiiiiiiiiippp;  o",
"o  ;ppppiiiiiiiiiiiiiiiiiiiiiiiiiiiiiiiiiiiiiiiiiiiiiiiiippp;  o",
"o  ;ppppiiiiiiiiiiiiiiiiiiiiiiiiiiiiiiiiiiiiiiiiiiiiiiiiippp;  o",
"o  ;ppppiiiiiiiiiiiiiiiiiiiiiiiiiiiiiiiiiiiiiiiiiiiiiiiiippp;  o",
"o  ;ppppiiiiiiiiiiiiiiiiiiiiiiiiiiiiiiiiiiiiiiiiiiiiiiiiippp;  o",
"o  ;ppppiiiiiiiiiiiiiiiiiiiiiiiiiiiiiiiiiiiiiiiiiiiiiiiiippp;  o",
"o  ;ppppiiiiiiiiiiiiiiiiiiiiiiiiiiiiiiiiiiiiiiiiiiiiiiiiippp;  o",
"o  ;ppppiiiiiiiiiiiiiiiiiiiiiiiiiiiiiiiiiiiiiiiiiiiiiiiiippp;  o",
"o  ;ppppiiiiiiiiiiiiiiiiiiiiiiiiiiiiiiiiiiiiiiiiiiiiiiiiippp;  o",
"o  ;ppppiiiiiiiiiiiiiiiiiiiiiiiiiiiiiiiiiiiiiiiiiiiiiiiiippp;  o",
"o  ;ppppiiiiiiiiiiiiiiiiiiiiiiiiiiiiiiiiiiiiiiiiiiiiiiiiippp;  o",
"o  ;ppppiiiiiiiiiiiiiiiiiiiiiiiiiiiiiiiiiiiiiiiiiiiiiiiiippp;  o",
"o  ;ppppiiiiiiiiiiiiiiiiiiiiiiiiiiiiiiiiiiiiiiiiiiiiiiiiippp;  o",
"o  ;ppppiiiiiiiiiiiiiiiiiiiiiiiiiiiiiiiiiiiiiiiiiiiiiiiiippp;  o",
"o  ;ppppiiiiiiiiiiiiiiiiiiiiiiiiiiiiiiiiiiiiiiiiiiiiiiiiippp;  o",
"o  ;ppppiiiiiiiiiiiiiiiiiiiiiiiiiiiiiiiiiiiiiiiiiiiiiiiiippp;  o",
"o  ;ppppiiiiiiiiiiiiiiiiiiiiiiiiiiiiiiiiiiiiiiiiiiiiiiiiippp;  o",
"o  ;ppppiiiiiiiiiiiiiiiiiiiiiiiiiiiiiiiiiiiiiiiiiiiiiiiiippp;  o",
"o  ;ppppiiiiiiiiiiiiiiiiiiiiiiiiiiiiiiiiiiiiiiiiiiiiiiiiippp;  o",
"o  ;ppppiiiiiiiiiiiiiiiiiiiiiiiiiiiiiiiiiiiiiiiiiiiiiiiiippp:  @",
"o  ;ppppiiiiiiiiiiiiiiiiiiiiiiiiiiiiiiiiiiiiiiiiiiiiiiiiippp0X 2",
"o  ;ppppiiiiiiiiiiiiiiiiiiiiiiiiiiiiiiiiiiiiiiiiiiiiiiiiipppprwp",
"o  ;ppppiiiiiiiiiiiiiiiiiiiiiiiiiiiiiiiiiiiiiiiiiiiiiiiiippppppp",
"o  ;ppppiiiiiiiiiiiiiiiiiiiiiiiiiiiiiiiiiiiiiiiiiiiiiiiiippppppp",
"o  ;ppppiiiiiiiiiiiiiiiiiiiiiiiiiiiiiiiiiiiiiiiiiiiiiiiiippppppp",
"o  ;ppppiiiiiiiiiiiiiiiiiiiiiiiiiiiiiiiiiiiiiiiiiiiiiiiiippppppp",
"o  ;ppppiiiiiiiiiiiiiiiiiiiiiiiiiiiiiiiiiiiiiiiiiiiiiiiiippppppp",
"o  ;ppppiiiiiiiiiiiiiiiiiiiiiiiiiiiiiiiiiiiiiiiiiiiiiiiiippppppp",
"o  ;ppppppppppppppppppppppppppuuuupppppppppppppppppppppppppppppp",
"o  #>><55555555555555555555555=&&=555555555555555555555555,>>>3t",
"o                                                              -",
"#                                                              $",
"8+                                                            +8"
};
