/* XPM */
static char *doors_svgrepo_com__1___1_1647796439[] = {
/* columns rows colors chars-per-pixel */
"64 64 42 1 ",
"  c #099A97",
". c #109D9A",
"X c #169F9C",
"o c #1CA29F",
"O c #24A5A3",
"+ c #29A7A4",
"@ c #42B1AF",
"# c #47B3B1",
"$ c #53B8B6",
"% c #5CBCBA",
"& c #65C0BE",
"* c #66C0BE",
"= c #69C1C0",
"- c #6DC3C1",
"; c #70C4C3",
": c #78C8C6",
"> c #7CC9C8",
", c #89CFCD",
"< c #91D2D1",
"1 c #9AD5D4",
"2 c #9FD8D7",
"3 c #A2D9D8",
"4 c #A7DBDA",
"5 c #AFDEDD",
"6 c #B4E0DF",
"7 c #B5E1E0",
"8 c #BCE4E3",
"9 c #BEE4E3",
"0 c #C4E7E6",
"q c #C7E8E7",
"w c #CAE9E9",
"e c #D1ECEC",
"r c #D3EDEC",
"t c #D7EEEE",
"y c #DFF2F2",
"u c #E4F4F3",
"i c #EDF8F8",
"p c #F3FAFA",
"a c #F5FBFB",
"s c #F6FBFB",
"d c #F9FCFC",
"f c #FFFFFF",
/* pixels */
"a*X1ffffff6O                                                   *",
"-   9ffffy                                                      ",
"+   <ffffq                                                      ",
"+   <ffffa                                                      ",
"+   <fffffp7444444444444444444$   $4444444444444444444444444<   ",
"+   <fffffffffffffffffffffffff$   $fffffffffffffffffffffffff<   ",
"+   <fffffffffffffffffffffffff$   $fffffffffffffffffffffffff<   ",
"+   <fffffffffffffffffffffffff$   $fffffffffffffffffffffffff<   ",
"+   <fffffffffffffffffffffffff$   $fffffffffffffffffffffffff<   ",
"+   <fffffffffffffffffffffffff$   $fffffffffffffffffffffffff<   ",
"+   <fffffffffffffffffffffffff$   $fffffffffffffffffffffffff<   ",
"+   <fffffffffffffffffffffffff$   $fffffffffffffffffffffffff<   ",
"+   <fffffffffffffffffffffffff$   $fffffffffffffffffffffffff<   ",
"+   <fffffffffffffffffffffffff$   $fffffffffffffffffffffffff<   ",
"+   <fffffffffffffffffffffffff$   $fffffffffffffffffffffffff<   ",
"+   <fffffffffffffffffffffffff$   $fffffffffffffffffffffffff<   ",
"+   <fffffffffffffffffffffffff$   $fffffffffffffffffffffffff<   ",
"+   <fffffffffffffffffffffffff$   $fffffffffffffffffffffffff<   ",
"+   <fffffffffffffffffffffffff$   $fffffffffffffffffffffffff<   ",
"+   <fffffffffffffffffffffffff$   $fffffffffffffffffffffffff<   ",
"+   <fffffffffffffffffffffffff$   $fffffffffffffffffffffffff<   ",
"+   <fffffffffffffffffffffffff$   $fffffffffffffffffffffffff<   ",
"+   <fffffffffffffffffffffffff$   $fffffffffffffffffffffffff<   ",
"+   <fffffffffffffffffffffffff$   $fffffffffffffffffffffffff<   ",
"+   <fffffffffffffffffffffffff$   $fffffffffffffffffffffffff<   ",
"+   <fffffffffffffffffffffffff$   $fffffffffffffffffffffffff<   ",
"+   <fffffffffffffffffffffffff$   $fffffffffffffffffffffffff<   ",
"+   <fffffffffffffffffffffffff$   $fffffffffffffffffffffffff<   ",
"+   <fffffffffffffffffffffffff$   $fffffffffffffffffffffffff<   ",
"+   <fffffffffffffffffffffffff$   $fffffffffffffffffffffffff<   ",
"+   <ffffffffffffffffiwydfffff$   $fffffdywiffffffffffffffff<   ",
"+   <ffffffffffffffr.    ,dfff$   $fffd,    .rffffffffffffff<   ",
"+   <fffffffffffff4       odff$   $ffdo       4fffffffffffff<   ",
"+   <ffffffffffffu         :ff$   $ff>         uffffffffffff<   ",
"+   <ffffffffffff*          if$   $fi          =ffffffffffff<   ",
"+   <ffffffffffffX   -at    wf$   $fw    td-   .ffffffffffff<   ",
"+   <fffffffffffd    wff.   2f$   $f2   .ffw    dfffffffffff<   ",
"+   <ffffffffffffO   @y5    rf$   $ff    5y@   Offffffffffff<   ",
"+   <ffffffffffff:          pf$   $fp          :ffffffffffff<   ",
"+   <ffffffffffffa         3ff$   $ff3         pffffffffffff<   ",
"+   <fffffffffffff0       *fff$   $fff*       0fffffffffffff<   ",
"+   <ffffffffffffffi%   O8ffff$   $ffff8O   %iffffffffffffff<   ",
"+   <fffffffffffffffffidffffff$   $ffffffdifffffffffffffffff<   ",
"+   <fffffffffffffffffffffffff$   $fffffffffffffffffffffffff<   ",
"+   <fffffffffffffffffffffffff$   $fffffffffffffffffffffffff<   ",
"+   <fffffffffffffffffffffffff$   $fffffffffffffffffffffffff<   ",
"+   <fffffffffffffffffffffffff$   $fffffffffffffffffffffffff<   ",
"+   <fffffffffffffffffffffffff$   $fffffffffffffffffffffffff<   ",
"+   <fffffffffffffffffffffffff$   $fffffffffffffffffffffffff<   ",
"+   <fffffffffffffffffffffffff$   $fffffffffffffffffffffffff<   ",
"+   <fffffffffffffffffffffffff$   $fffffffffffffffffffffffff<   ",
"+   <fffffffffffffffffffffffff$   $fffffffffffffffffffffffff5   ",
"+   <fffffffffffffffffffffffff$   $fffffffffffffffffffffffffd#  ",
"+   <fffffffffffffffffffffffff$   $fffffffffffffffffffffffffffif",
"+   <fffffffffffffffffffffffff$   $fffffffffffffffffffffffffffff",
"+   <fffffffffffffffffffffffff$   $fffffffffffffffffffffffffffff",
"+   <fffffffffffffffffffffffff$   $fffffffffffffffffffffffffffff",
"+   <fffffffffffffffffffffffff$   $fffffffffffffffffffffffffffff",
"+   <fffffffffffffffffffffffff$   $fffffffffffffffffffffffffffff",
"+   <fffffffffffffffffffffffff$   $fffffffffffffffffffffffffffff",
"+   <4444444444444444444444444$   $4444444444444444444444444444r",
"+                                                               ",
"+                                                               ",
"-                                                               "
};
