/* XPM */
static char *f1bed75b77f6479e934d63efdefda368[] = {
/* columns rows colors chars-per-pixel */
"64 64 212 2 ",
"   c #4E4C4A",
".  c #534D48",
"X  c #83776B",
"o  c #8F8071",
"O  c #938576",
"+  c #B346BD",
"@  c #B54ABD",
"#  c #B952BD",
"$  c #BD5CBD",
"%  c #BE61BD",
"&  c #C05EB9",
"*  c #C262B8",
"=  c #C46ABC",
"-  c #C971B7",
";  c #C671BD",
":  c #C974BC",
">  c #CA78BE",
",  c #D17EB4",
"<  c #9C52D9",
"1  c #B74BC1",
"2  c #B94FC3",
"3  c #A45ACC",
"4  c #AC5BCD",
"5  c #B751C1",
"6  c #BB52C4",
"7  c #B55FC6",
"8  c #BC59C4",
"9  c #BE55C8",
"0  c #A55AD7",
"q  c #AA65CF",
"w  c #BD64C5",
"e  c #B561CD",
"r  c #B965CE",
"t  c #AB64D6",
"y  c #BA66D0",
"u  c #BD6BD4",
"i  c #B466DB",
"p  c #B868D9",
"a  c #9E5FF5",
"s  c #A55FE9",
"d  c #A05FF1",
"f  c #9F62FF",
"g  c #A866E6",
"h  c #B56AE6",
"j  c #AF76EE",
"k  c #B477E6",
"l  c #A464F7",
"z  c #AB66F2",
"x  c #A265FE",
"c  c #A56CFF",
"v  c #AC6AFB",
"b  c #B26EF9",
"n  c #AB74FF",
"m  c #AE79FE",
"M  c #B477F6",
"N  c #BB74F5",
"B  c #B470F8",
"V  c #B17DFF",
"C  c #C25BCC",
"Z  c #C462CC",
"A  c #C56AC9",
"S  c #C674CD",
"D  c #C97BCF",
"F  c #D47ACD",
"G  c #C761D0",
"H  c #C965D3",
"J  c #C36FD4",
"K  c #CD6AD6",
"L  c #CF6CD8",
"P  c #D06ED9",
"I  c #C572D4",
"U  c #CB7BD4",
"Y  c #CD78D7",
"T  c #C573DA",
"R  c #C976DA",
"E  c #D376D8",
"W  c #CE7DE3",
"Q  c #C578E9",
"!  c #CC7EEA",
"~  c #D27FE1",
"^  c #C47AF2",
"/  c #CA7EF1",
"(  c #A59382",
")  c #AB9A87",
"_  c #B29F8B",
"`  c #BCA791",
"'  c #C5AF98",
"]  c #DB92AF",
"[  c #CF82BD",
"{  c #D285B8",
"}  c #DC99B5",
"|  c #D4ACAC",
" . c #D4BCA3",
".. c #DFA2BB",
"X. c #E6A7AD",
"o. c #E3ADBD",
"O. c #E9B8BA",
"+. c #EEC697",
"@. c #F6CD9C",
"#. c #FFD29D",
"$. c #D8C0A6",
"%. c #EAC8AA",
"&. c #FED5A3",
"*. c #FCD6AA",
"=. c #FAD8AE",
"-. c #EACDB4",
";. c #EEC4BD",
":. c #F3D3B6",
">. c #F9D7B7",
",. c #F5D9B6",
"<. c #FBDAB3",
"1. c #F4D3BE",
"2. c #F6DBBC",
"3. c #F9DDBD",
"4. c #B782EA",
"5. c #B885F4",
"6. c #B584FF",
"7. c #B789FF",
"8. c #BA8CFF",
"9. c #BE92FF",
"0. c #D384C6",
"q. c #D997CB",
"w. c #CD84D4",
"e. c #CF8BD6",
"r. c #D18FD7",
"t. c #D682DD",
"y. c #DC85DA",
"u. c #D794D8",
"i. c #D69BDC",
"p. c #E287D5",
"a. c #E48CDD",
"s. c #E29ED7",
"d. c #FA9EDF",
"f. c #DFA6C8",
"g. c #DAA4DF",
"h. c #E4ABC3",
"j. c #E3ABCC",
"k. c #E5B2C9",
"l. c #EAB4CD",
"z. c #F4BDCE",
"x. c #E7A4D7",
"c. c #FAADDB",
"v. c #F4B6D2",
"b. c #CE81EF",
"n. c #D582E2",
"m. c #D985E3",
"M. c #DD8CE5",
"N. c #D485ED",
"B. c #D887EB",
"V. c #D48CEB",
"C. c #DB8AEA",
"Z. c #DE97E8",
"A. c #D18DF2",
"S. c #C197FF",
"D. c #CA93F8",
"F. c #C39BFF",
"G. c #E28EE6",
"H. c #E08DE8",
"J. c #E791E6",
"K. c #EB94E5",
"L. c #F097E3",
"P. c #F298E2",
"I. c #F99DE0",
"U. c #DDAAE2",
"Y. c #DFB0E3",
"T. c #C6A2FF",
"R. c #C8A2FF",
"E. c #CDACFF",
"W. c #D3A3F8",
"Q. c #D3B4FF",
"!. c #D6BBFF",
"~. c #D9BCFE",
"^. c #EFA7E9",
"/. c #E1B4E6",
"(. c #E3BBE6",
"). c #EBBCEE",
"_. c #FCBAE9",
"`. c #EEC5C5",
"'. c #F2CBC2",
"]. c #F4C1CC",
"[. c #F6D1C0",
"{. c #F9D5C2",
"}. c #F9DFC0",
"|. c #EBCAD9",
" X c #F7E1C7",
".X c #FAE1C6",
"XX c #FAE4CB",
"oX c #FAE7D2",
"OX c #FBE9D3",
"+X c #FCEDDC",
"@X c #DBC3FF",
"#X c #DECAFF",
"$X c #E7C3E5",
"%X c #EACBED",
"&X c #E1CDFF",
"*X c #F5CCF3",
"=X c #EED5F0",
"-X c #E6D4FF",
";X c #EADBFE",
":X c #F5D7F6",
">X c #F2DBF2",
",X c #FAEFE1",
"<X c #FEF1E3",
"1X c #FEF6EC",
"2X c #EEE3FF",
"3X c #F4E3F5",
"4X c #F7E7F8",
"5X c #F3EBFF",
"6X c #FEFAF4",
"7X c #F7F2FF",
"8X c #FBF4FD",
"9X c #FFFFFF",
/* pixels */
"9X9X9X9X9X9X9X9X9X9X9X9X9X9X9X9X9X9X9X9X9X9X9X9X9X9X9X9X9X9X9X9X9X9X9X9X9X9X9X9X9X9X9X9X9X9X9X9X9X9X9X9X9X9X9X9X9X9X9X9X9X9X9X9X",
"9X9X9X9X9X9X9X9X9X9X9X9X9X9X9X9X9X9X9X9X9X9X9X9X9X9X9X9X9X9X9X9X9X9X9X9X9X9X9X9X9X9X9X9X9X9X9X9X9X9X9X9X9X9X9X9X9X9X9X9X9X9X9X9X",
"9X9X9X9X9X9X9X9X9X9X9X9X9X9X9X9X9X9X9X9X9X9X9X9X9X9X9X9X8X).M.m.m.M.).8X9X9X9X9X9X9X9X9X9X9X9X9X9X9X9X9X9X9X9X9X9X9X9X9X9X9X9X9X",
"9X9X9X9X9X9X9X9X9X9X9X9X9X9X9X9X9X9X9X9X9X9X9X9X9X9X9X%XK K P P P P K H ).9X9X9X9X9X9X9X9X9X9X9X9X9X9X9X9X9X9X9X9X9X9X9X9X9X9X9X",
"9X9X9X9X9X9X9X9X9X9X9X9X9X9X9X9X9X9X9X9X9X9X9X9X9X9X/.C H H K L L K H H C U.9X9X9X9X9X9X9X9X9X9X9X9X9X9X9X9X9X9X9X9X9X9X9X9X9X9X",
"9X9X9X9X9X9X9X9X9X9X9X9X9X9X9X9X9X9X9X9X9X9X9X9X9X3XC C G H H H H H H Z C C >X9X9X9X9X9X9X9X9X9X9X9X9X9X9X9X9X9X9X9X9X9X9X9X9X9X",
"9X9X9X9X9X9X9X9X9X9X9X9X9X9X9X9X9X9X9X9X9X9X9X9X9Xw.9 C C Z 0.H H G C C C 9 D 9X9X9X9X9X9X9X9X9X9X9X9X9X9X9X9X9X9X9X9X9X9X9X9X9X",
"9X9X9X9X9X9X9X9X9X9X9X9X9X9X9X9X9X9X9X9X9X9X9X9X8X6 6 9 C h.3.h.Z C C C 9 6 2 3X9X9X9X9X9X9X9X9X9X9X9X9X9X9X9X9X9X9X9X9X9X9X9X9X",
"9X9X9X9X9X9X9X9X9X9X9X9X9X9X9X9X9X9X9X9X9X9X9X9X=X1 2 8 h.3.3.3.1.q.A 9 6 2 1 U.9X9X9X9X9X9X9X9X9X9X9X9X9X9X9X9X9X9X9X9X9X9X9X9X",
"9X9X9X9X9X9X9X9X9X9X9X9X9X9X9X9X9X9X9X9X9X9X9X9X/.+ 5 ;. .' 2.3.3.3. .| 0.1 + e.9X9X9X9X9X9X9X9X9X9X9X9X9X9X9X9X9X9X9X9X9X9X9X9X",
"9X9X9X9X9X9X9X9X9X9X9X9X9X9X9X9X9X9X9X9X9X9X9X9Xg.+ = :.) _ $.3.3. .( ( :.# + e.9X9X9X9X9X9X9X9X9X9X9X9X9X9X9X9X9X9X9X9X9X9X9X9X",
"9X9X9X9X9X9X9X9X9X9X9X9X9X9X9X9X9X9X9X9X9X9X9X9Xe.+ : 3.X . 3.3.3.3.. o 3.% + g.9X9X9X9X9X9X9X9X9X9X9X9X9X9X9X9X9X9X9X9X9X9X9X9X",
"9X9X9X9X9X9X9X9X9X9X9X9X9X9X9X9X9X9X9X9X9X9X9X9Xw + = 3.' ( 3.3.3.3.O ` 3.$ + >X9X9X9X9X9X9X9X9X9X9X9X9X9X9X9X9X9X9X9X9X9X9X9X9X",
"9X9X9X9X9X9X9X9X9X9X9X9X9X9X9X9X9X9X9X9X9X9X9X4X+ + $ 3.3.3.3.%.%.3.3.3.3.# 8 9X9X9X9X9X9X9X9X9X9X9X9X9X9X9X9X9X9X9X9X9X9X9X9X9X",
"9X9X9X9X9X9X9X9X9X9X9X9X9X9X9X9X9X9X9X9X9X9X9Xg.+ + # 3.3.3.-.2.2.-.3.3.1.# r.9X9X9X9X9X9X9X9X9X9X9X9X9X9X9X9X9X9X9X9X9X9X9X9X9X",
"9X9X9X9X9X9X9X9X9X9X9X9X9X9X9X9X9X9X9X9X9X9X8X5 + + + o.3.3.X     O 3.3.{ + (.9X9X9X9X9X9X9X1X9X,X9X9X9X9X9X9X9X9X9X9X9X9X9X9X9X",
"9X9X9X9X9X9X9X9X9X9X9X9X9X9X9X9X9X9X9X9X9X9Xr.+ + + + # ;.3.3.-.-.3.3.O.+ + %X9X9X9X9X9X9X1X#. X+.6X9X9X9X9X9X9X9X9X9X9X9X9X9X9X",
"9X9X9X9X9X9X9X9X9X9X9X9X9X9X9X9X9X9X9X9X9X3X+ + + + + + @ ..3.3.3.3.} + + + i.9X9X9X9X9X9X<X#.@.*.+X9X9X9X9X9X9X9X9X9X9X9X9X9X9X",
"9X9X9X9X9X9X9X9X9X9X9X9X9X9X9X9X9X9X9X9X9Xg.+ + + + + + + * &.*.*.&.@ + + + + r.>X9X9X9X9X6X&.@.=.&.<X9X9X9X9X9X9X9X9X9X9X9X9X9X",
"9X9X9X9X9X9X9X9X9X9X9X9X9X9X9X9X9X9X9X9X9XU + + + + & - { X.&.&.&.&.] , = @ + + + A %X9X9X9X<.&.&.&.&.1X9X9X9X9X9X9X9X9X9X9X9X9X",
"9X9X9X9X9X9X9X9X9X9X9X9X9X9X9X9X9X9X9X9X9XD + @ ] *.*.*.*.*.*.*.*.*.*.*.*.*.X.- + + + i.9X9X6X<.*.*.*.<.9X9X9X9X9X9X9X9X9X9X9X9X",
"9X9X9X9X9X9X9X9X9X9X9X9X9X9X9X9X9X9X9X9X9Xi.+ O.*.*.*.*.*.*.*.*.*.*.*.*.*.*.*.*.} + + + =X9X9X6X<.*.*.*.<X9X9X9X9X9X9X9X9X9X9X9X",
"9X9X9X9X9X9X9X9X9X9X9X9X9X9X9X9X9X9X9X9X9X%X{ <.<.<.<.<.<.<.<.<.<.<.<.<.<.<.<.<.<.: + + g.9X9X9X<X<.<.<.<X9X9X9X9X9X9X9X9X9X9X9X",
"9X9X9X9X9X9X9X9X9X9X9X9X9X9X9X9X9X9X9X9X9X6X:.<.<.<.<.>.<.<.<.<.<.<.<.>.<.<.<.<.<.O.+ + Y.9X9X9XOX<.<.<.6X9X9X9X9X9X9X9X9X9X9X9X",
"9X9X9X9X9X9X9X9X9X9X9X9X9X9X9X9X9X9X9X9X9X+X3.3.2.x.s.C.l.'.3.3.3.'.l.M.s.x.[.3.3.3.= + 4X9X9X1X3.3.3.XX9X9X9X9X9X9X9X9X9X9X9X9X",
"9X9X9X9X9X9X9X9X9X9X9X9X9X9X9X9X9X9X9X9X9X.X3.3.j.n.I n.R m.3.3.3.u.R ~ T n.x.3.3.3.o.U 9X9X9X.X3.3.3.6X9X9X9X9X9X9X9X9X9X9X9X9X",
"9X9X9X9X9X9X9X9X9X9X9X9X9X9X9X9X9X9X9X9X<X3.3.`.Y y r R J I j.3.j.J Y u r T R l.3.3.3.$X9X9XXX3.3.3.+X9X9X9X9X9X9X9X9X9X9X9X9X9X",
"9X9X9X9X9X9X9X9X9X9X9X9X9X9X9X9X9X9X9X9X.X3.3.3.q.e e r y J u.3.k.R e r r e Y '.3.3.3.oX9XOX3.3.3..X9X9X9X9X9X9X9X9X9X9X9X9X9X9X",
"9X9X9X9X9X9X9X9X9X9X9X9X9X9X9X9X9X9X9X1X3.3.3.3..X/.r y I j.3.3.3.`.D r r q.> ;.3.3.3.3.OX3.3.3.3.6X9X9X9X9X9X9X9X9X9X9X9X9X9X9X",
"9X9X9X9X9X9X9X9X9X9X9X9X9X9X9X9X9X9X9XoX3.3.3.3.1X8Xk.f.'.3.3.3.3.3.1.j.k.1.: > 3.3.3.3.3.3.3.3.|.g./.4X9X9X9X9X9X9X9X9X9X9X9X9X",
"9X9X9X9X9X9X9X9X9X9X9X9X9X9X9X9X9X9X1X3.3.3.3.OX9X9X}.3.3.3.3.3.3.3.3.3.3.3.: + O.3.3.3.3.3.3.O.+ + + + u.8X9X9X9X9X9X9X9X9X9X9X",
"9X9X9X9X9X9X9X9X9X9X9X9X9X9X9X9X9X6X}.3.3.3..X9X9X9X3.3.3.3.3.3.3.3.3.3.3.3.; + ; 3.3.3.3.3.;.# + + + + + w.9X9X9X9X9X9X9X9X9X9X",
"9X9X9X9X9X9X9X9X9X9X9X9X9X9X9X9X9X.X3.3.3.3.1X9X9X9X3.3.3.3.3.3.3.3.3.3.3.3.; + + o.3.3.3.1.$ + + + w.i.w.5 (.9X9X9X9X9X9X9X9X9X",
"9X9X9X9X9X9X9X9X9X9X9X9X9X9X9X9XXX3.3.3.3.+X9X9X9X9X3.3.3.3.3.3.3.3.3.3.3.3.; + + # ;.3.1.= + + Z 3X9X9X9X8X%X9X9X9X9X9X9X9X9X9X",
"9X9X9X9X9X9X9X9X9X9X9X9X9X9X9XOX3.3.3.3.+X9X9X9X9X6X3.3.3.3.3.3.3.3.3.3.3.3.; + + + @ [ $ + + w.8X9X9X9X9X9X9X9X9X9X9X9X9X9X9X9X",
"9X9X9X9X9X9X9X9X9X9X9X9X9X6XoX3.3.3.3.OX9X9X9X9X9X4X{.3.3.3.3.3.3.3.3.3.3.3.|.5 + + + + + 8 $X9X9X9X9X9X9X9X9X9X9X9X9X9X9X9X9X9X",
"9X9X9X9X9X9X9X9X9X9XXX3.3.3.3.3.3.3.XX9X9X9X9X9X9X_.c.{.3.3.3.3.3.3.3.{.].x.>X8XU.w.S w.(.8X9X9X9X9X9X9X9X9X9X9X9X9X9X9X9X9X9X9X",
"9X9X9X9X9X9X9X9X9X.X3.3.3.3.3.3.3..X9X9X9X9X9X9X8Xd.I.d.c.z.].].z.v.x.J.G.H.:X9X9X9X9X9X9X9X9X9X9X9X9X9X9X9X9X9X9X9X9X9X9X9X9X9X",
"9X9X9X9X9X9X9X6X.X3.,.+X9X.X3.3..X9X9X9X9X9X9X9X:XI.I.p.p.P.K.K.K.J.G.G.C.B.:X9X9X9X9X9X9X9X9X9X9X9X9X9X9X9X9X9X9X9X9X9X9X9X9X9X",
"9X9X9X9X9X9X9X<X3.,.+.<X+X3.3..X6X9X9X9X9X9X9X9X_.F P.P.F A y.K.Y w I B.B.N.:X9X9X9X9X9X9X9X9X9X9X9X9X9X9X9X9X9X9X9X9X9X9X9X9X9X",
"9X9X9X9X9X9X9X9X9X2.,.+X.X.X+X9X9X9X9X9X9X9X9X9XI.a.% F K.a.J.G.M.C.B.W N.b.4X9X9X9X9X9X9X9X9X9X9X9X9X9X9X9X9X9X9X9X9X9X9X9X9X9X",
"9X9X9X9X9X9X9X9X9X9X9X9X9X9X9X9X9X9X9X9X9X9X9X8XL.K.a.K.J.E w J n.r 7 ! b.b.8X9X9X9X9X9X9X9X9X9X9X9X9X9X9X9X9X9X9X9X9X9X9X9X9X9X",
"9X9X9X9X9X9X9X9X9X9X9X9X9X9X9X9X9X9X9X9X9X9X9X:Xy.K.y.w A n.n.B.N.N.b./ / W.9X9X9X9X9X9X9X9X9X9X9X9X9X9X9X9X9X9X9X9X9X9X9X9X9X9X",
"9X9X9X9X9X9X9X9X9X9X9X9X9X9X9X9X9X9X9X9X9X9X9X*XF A t.m.m.B.T 7 u / / ^ ^ ;X9X9X9X9X9X9X9X9X9X9X9X9X9X9X9X9X9X9X9X9X9X9X9X9X9X9X",
"9X9X9X9X9X9X9X9X9X9X9X9X9X9X9X9X9X9X9X9X9X9X9X).G.t.Y W r T ! ! / ^ ^ N D.9X9X9X9X9X9X9X9X9X9X9X9X9X9X9X9X9X9X9X9X9X9X9X9X9X9X9X",
"9X9X9X9X9X9X9X9X9X9X9X9X9X9X9X9X9X9X9X9X9X9X9X^.C.I n.N.! Q / y 4 i N N 2X9X9X9X@X8X9X9X9X9X9X9X9X9X9X9X9X9X9X9X9X9X9X9X9X9X9X9X",
"9X9X9X9X9X9X9X9X9X9X9X9X9X9X9X9X9X9X9X9X9X9X9XZ.B.N.r y Q Q ^ ^ N N B Q.9X9X9XT.9.9X9X9X9X9X9X9X9X9X9X9X9X9X9X9X9X9X9X9X9X9X9X9X",
"9X9X9X9X9X9X9X9X9X9X9X9X9X9X9X9X9X9X9X9X9X9X9XV.u b.b./ ^ i 4 h B b 6.9X9X9X#Xx F.9X9X9X9X9X9X9X9X9X9X9X9X9X9X9X9X9X9X9X9X9X9X9X",
"9X9X9X9X9X9X9X9X9X9X9X9X9X9X9X9X9X9X9X9X9X9X9XA.u e p N N N B b v v &X9X9X9XV x n 8X9X9X9X9X9X9X9X9X9X9X9X9X9X9X9X9X9X9X9X9X9X9X",
"9X9X9X9X9X9X9X9X9X9X9X9X9X9X9X9X9X9X9X9X9X9X9XA./ ^ N 4 t 0 0 g x V 9X9X9X;Xx l c Q.9X9X9X9X9X9X9X9X9X9X9X9X9X9X9X9X9X9X9X9X9X9X",
"9X9X9X9X9X9X9X9X9X9X9X9X9X9X9X9X9X9X9X9X9X9X9XA.i h N B b v g x x E.9X9X9XQ.c 0 n n ;X9X9X9X9X9X9X9X9X9X9X9X9X9X9X9X9X9X9X9X9X9X",
"9X9X9X9X9X9X9X9X9X9X9X9X9X9X9X9X9X9X9X9X9X9X9XD.N 0 0 z 0 s d f f -X9X9X9XF.c 3 n n 7.9X9X9X9X9X9X9X9X9X9X9X9X9X9X9X9X9X9X9X9X9X",
"9X9X9X9X9X9X9X9X9X9X9X9X9X9X9X9X9X9X9X9X9X9X9XW.b v s l l < a x x 7X9X9X9XF.n 3 m m m ;X9X9X9X9X9X9X9X9X9X&X9X9X9X9X9X9X9X9X9X9X",
"9X9X9X9X9X9X9X9X9X9X9X9X9X9X9X9X9X9X9X9X9X9X9X~.v v l < < x x x c 9X9X9X9XE.m 3 m g V @X;X!.E.F.F.F.F.R.F.!.9X9X9X9X9X9X9X9X9X9X",
"9X9X9X9X9X9X9X9X9X9X9X9X9X9X9X9X9X9X9X9X9X9X9X;Xx x f x x x c c m 9X9X9X9X-Xm g m t 6.6.6.6.8.8.8.9.5.9.S.5X9X9X9X9X9X9X9X9X9X9X",
"9X9X9X9X9X9X9X9X9X9X9X9X9X9X9X9X9X9X9X9X9X9X9X9Xc f x x x c c c n 9X9X9X9X9X9.V g j 6.6.j 5.8.k 9.k 4.F.@X9X9X9X9X9X9X9X9X9X9X9X",
"9X9X9X9X9X9X9X9X9X9X9X9X9X9X9X9X9X9X9X9X9X9X9X9XR.x x c c c n n n 7X9X9X9X9X2X6.M 6.6.4 k 8.q k 5.q F.E.8X9X9X9X9X9X9X9X9X9X9X9X",
"9X9X9X9X9X9X9X9X9X9X9X9X9X9X9X9X9X9X9X9X9X9X9X9X5Xc c c n n n m m @X9X9X9X9X8XF.6.8.5.8.9.5.8.S.S.F.E.8X9X9X9X9X9X9X9X9X9X9X9X9X",
"9X9X9X9X9X9X9X9X9X9X9X9X9X9X9X9X9X9X9X9X9X9X9X9X9XQ.c n n n m m m 6.@X5X5X&X9.8.8.8.8.9.9.S.F.F.F.@X8X9X9X9X9X9X9X9X9X9X9X9X9X9X",
"9X9X9X9X9X9X9X9X9X9X9X9X9X9X9X9X9X9X9X9X9X9X9X9X9X9XF.n m m m V V 6.6.6.6.8.8.8.E.8X;X@XQ.Q.~.-X7X9X9X9X9X9X9X9X9X9X9X9X9X9X9X9X",
"9X9X9X9X9X9X9X9X9X9X9X9X9X9X9X9X9X9X9X9X9X9X9X9X9X9X8XF.m V V 6.6.6.6.7.8.8.8.@X9X9X9X9X9X9X9X9X9X9X9X9X9X9X9X9X9X9X9X9X9X9X9X9X",
"9X9X9X9X9X9X9X9X9X9X9X9X9X9X9X9X9X9X9X9X9X9X9X9X9X9X9X9X&X9.6.6.6.6.8.8.9.!.5X9X9X9X9X9X9X9X9X9X9X9X9X9X9X9X9X9X9X9X9X9X9X9X9X9X",
"9X9X9X9X9X9X9X9X9X9X9X9X9X9X9X9X9X9X9X9X9X9X9X9X9X9X9X9X9X9X5X-X#X#X-X2X9X9X9X9X9X9X9X9X9X9X9X9X9X9X9X9X9X9X9X9X9X9X9X9X9X9X9X9X",
"9X9X9X9X9X9X9X9X9X9X9X9X9X9X9X9X9X9X9X9X9X9X9X9X9X9X9X9X9X9X9X9X9X9X9X9X9X9X9X9X9X9X9X9X9X9X9X9X9X9X9X9X9X9X9X9X9X9X9X9X9X9X9X9X"
};
