/* XPM */
static char *_74af931234142ecace9d480de3cf08f[] = {
/* columns rows colors chars-per-pixel */
"64 64 97 2 ",
"   c #099A97",
".  c #0B9B98",
"X  c #0C9B98",
"o  c #0D9C99",
"O  c #119D9A",
"+  c #149E9B",
"@  c #169F9C",
"#  c #17A09D",
"$  c #19A19E",
"%  c #1CA29F",
"&  c #1DA2A0",
"*  c #20A4A1",
"=  c #26A6A3",
"-  c #27A6A4",
";  c #28A7A4",
":  c #2BA8A5",
">  c #2FA9A7",
",  c #30AAA7",
"<  c #33ABA9",
"1  c #36ADAA",
"2  c #38ADAB",
"3  c #3AAEAC",
"4  c #3CAFAD",
"5  c #3FB0AE",
"6  c #40B1AE",
"7  c #47B3B1",
"8  c #48B4B2",
"9  c #4CB5B3",
"0  c #4DB6B4",
"q  c #50B7B5",
"w  c #53B8B6",
"e  c #55B9B7",
"r  c #57BAB8",
"t  c #59BBB9",
"y  c #5CBCBA",
"u  c #63BFBD",
"i  c #64BFBD",
"p  c #65C0BE",
"a  c #69C1BF",
"s  c #6BC2C1",
"d  c #6CC3C1",
"f  c #6EC4C2",
"g  c #72C5C3",
"h  c #73C6C4",
"j  c #76C7C5",
"k  c #7AC8C7",
"l  c #7FCAC9",
"z  c #80CBC9",
"x  c #82CCCA",
"c  c #84CDCB",
"v  c #85CDCC",
"b  c #88CECD",
"n  c #8CD0CE",
"m  c #8FD1D0",
"M  c #91D2D1",
"N  c #95D3D2",
"B  c #96D4D3",
"V  c #98D5D3",
"C  c #9BD6D5",
"Z  c #9CD6D5",
"A  c #A1D9D7",
"S  c #A3D9D8",
"D  c #A5DAD9",
"F  c #A8DBDA",
"G  c #A9DCDB",
"H  c #ABDDDC",
"J  c #AFDEDD",
"K  c #B2DFDE",
"L  c #B3E0DF",
"P  c #B4E0DF",
"I  c #B7E1E0",
"U  c #BAE2E2",
"Y  c #BDE4E3",
"T  c #BFE5E4",
"R  c #C0E5E4",
"E  c #C5E7E7",
"W  c #C6E8E7",
"Q  c #C9E9E8",
"!  c #CFEBEB",
"~  c #D1ECEB",
"^  c #D2ECEC",
"/  c #D4EDED",
"(  c #D8EFEF",
")  c #D9F0EF",
"_  c #DBF0F0",
"`  c #DDF1F1",
"'  c #E0F2F2",
"]  c #E3F4F3",
"[  c #E4F4F4",
"{  c #E9F6F6",
"}  c #ECF7F7",
"|  c #EEF8F8",
" . c #F1F9F9",
".. c #F6FBFB",
"X. c #F7FCFC",
"o. c #F8FCFC",
"O. c white",
/* pixels */
"O.O.O.O.O.O.O.O.O.O.O.O.O.O.O.O.O.O.O.O.O.O.O.O.O.O.O.O.O.O.O.O.O.O.O.O.O.O.O.O.O.O.O.O.O.O.O.O.O.O.O.O.O.O.O.O.O.O.O.O.O.O.O.O.",
"O.O.O.O.O.O.O.O.O.O.O.O.O.O.O.O.O.O.O.O.O.O.O.O.O.O.O.O.O.O.O.O.O.O.O.O.O.O.O.O.O.O.O.O.O.O.O.O.O.O.O.O.O.O.O.O.O.O.O.O.O.O.O.O.",
"O.O.O.O.O.[ M f k U O.O.O.O.O.O.O.O.O.O.O.O.O.O.O.O.O.O.O.O.O.O.O.O.O.O.O.O.O.O.O.O.O.O.O.O.O.O.O.O.O.O.O.O.O.O.O.O.O.O.O.O.O.O.",
"O.O.O.O.B O         5 [ O.O.O.O.O.O.O.O.O.O.O.O.O.O.O.O./ / O.O.O.O.O.O.O.O.O.O.O.O.O.O.O.O.O.O.O.O.O.O.O.O.O.O.O.O.O.O.O.O.O.O.",
"O.O.O.S         $ o   < ..O.O.O.O.O.O.O.O.O.O.O.O.O.O.I o 7 O.O.O.O.O.O.O.O.O.O.O.O.O.O.O.O.O.O.O.O.O.O.O.O.O.O.O.O.O.O.O.O.O.O.",
"O.O.o.&         R ~ O   N O.O.O.O.O.O.O.O.O.O.O.O.O.) O   = O.O.O.O.O.O.O.O.O.O.O.O.O.O.O.O.O.O.O.O.O.O.O.O.O.O.O.O.O.O.O.O.O.O.",
"O.O.R         + | O.f   7 O.O.O.O.O.O.O.O.O.O.O.O.O.6     > O.O.O.O.O.O.O.O.O.O.O.O.O.O.O.O.O.O.O.O.O.O.O.O.O.O.O.O.O.O.O.O.O.O.",
"O.O.G   O 0 6 U O.O.B   > O.O.O.O.O.O.O.O.O.O.O.O.G       1 O.O.O.O.O.O.O.O.O.O.O.O.O.O.O.O.O.O.O.O.O.O.O.O.O.O.O.O.O.O.O.O.O.O.",
"O.O.R     [ O.O.O.O.a   8 O.O.O.O.O.O.O.O.O.O.O.o.:       6 O.O.O.O.O.O.O.O.O.O.O.O.O.O.O.O.O.O.O.O.O.O.O.O.O.O.O.O.O.O.O.O.O.O.",
"O.O.o.&   0  .O.O.I o   N O.O.O.O.O.O.O.O.O.O.O.H         8 O.O.O.O.O.O.O.O.O.O./ K ! O.O.O.O.O.O.O.O.O.O.O.O.O.O.O.O.O.O.O.O.O.",
"O.O.O.D     & e 5     < X.O.O.O.O.O.O.O.O.O.O.O.6   e 4   r O.O.O.O.O.O.O.O.[ 7       1 ( O.O.O.O.O.O.O.O.O.O.O.O.O.O.O.O.O.O.O.",
"O.O.O.O.V O         6 [ O.O.O.O.O.O.O.O.O.O.O./     ( O.g i O.O.O.O.O.O.O.o.1           =  .O.O.O.O.O.O.O.O.O.O.O.O.O.O.O.O.O.O.",
"O.O.O.O.O.[ M f k U O.O.O.O.O.O.O.O.O.O.O.O.O.x   1 O.O.< g O.O.O.O.O.O.O.J         Z #   m O.O.O.O.O.O.O.O.O.O.O.O.O.O.O.O.O.O.",
"O.O.O.O.O.O.O.O.O.O.O.O.O.O.O.O.O.O.O.O.O.O.O.<   v O./   k O.O.O.O.O.O.O.l       r O.p   y O.O.O.O.O.O.O.O.O.O.O.O.O.O.O.O.O.O.",
"O.O.O.O.O.O.O.O.O.O.O.O.O.O.O.O.O.O.O.O.O.O.{     W O.n   j O.O.O.O.O.O.O.b   ; ] O.O.7   d O.O.O.O.O.O.O.O.O.O.O.O.O.O.O.O.O.O.",
"O.O.O.O.O.O.O.O.O.O.O.O.O.O.O.O.O.O.O.O.O.O.J   . ..O.y   s O.O.O.O.O.O.O./ .   0 A u     U O.O.O.O.O.O.O.O.O.O.O.O.O.O.O.O.O.O.",
"O.O.O.O.O.O.O.O.O.O.O.O.O.O.O.O.O.O.O.O.O.O.n   O O.O.6   8 O.O.O.O.O.O.O.O.c           a O.O.O.O.O.O.O.O.O.O.O.O.O.O.O.O.O.O.O.",
"O.O.O.O.O.O.O.O.O.O.O.O.O.O.O.O.O.O.O.O.O.O.h   O O.O.9   $ O.O.O.O.O.O.} U [ J 7 = 5 Z O.O.O.O.O.O.O.O.O.O.O.O.O.O.O.O.O.O.O.O.",
"O.O.O.O.O.O.O.O.O.O.O.O.O.O.O.O.O.O.O.O.O.O.l     Q O.C     L O.O.O.O.` &   @ Q O.O.O.O.O.O.O.O.O.O.O.O.O.O.O.O.O.O.O.O.O.O.O.O.",
"O.O.O.O.O.O.O.O.O.O.O.O.O.O.O.O.O.O.O.O.O.O.J     j O.o.>   3 O.O.O.O.v       p O.O.O.O.O.O.O.O.O.O.O.O.O.O.O.O.O.O.O.O.O.O.O.O.",
"O.O.O.O.O.O.O.O.O.O.O.O.O.O.O.O.O.O.O.O.O.O.X.$   O ] O.~ O   n O.O.O.A       c O.O.O.O.O.[ } O.O.O.O.O.O.O.O.O.O.O.O.O.O.O.O.O.",
"O.O.O.O.O.O.O.O.O.I B O.O.O.O.O.O.O.O.O.O.O.O.M     0 O.O.A   o R O.O.O.j > p ..O.O.O.O.O.Z & / O.O.O.O.O.O.O.O.O.O.O.O.O.O.O.O.",
"O.O.O.O.O.O.O.O.O.n   y O.O.O.O.O.O.O.O.O.O.O.o.1     b O.O.d   & ] O.O.O.O.O.O.O.O.O.O.O.I   - | O.O.O.O.O.O.O.O.O.O.O.O.O.O.O.",
"O.O.O.O.O.O.O.O.O.T     j O.O.O.O.O.O.O.O.O.O.O.! o   . K O.o.6   6 o.O.O.O.O.O.O.O.O.O.O.{     y O.O.O.O.O.O.O.O.O.O.O.O.O.O.O.",
"O.O.O.O.O.O.O.O.O...o     V O.O.O.O.O.O.O.O.O.O.O.j     # ` O.' #   l O.O.O.O.O.O.O.O.O.O.O.;     U O.O.O.O.O.O.O.O.O.O.O.O.O.O.",
"O.O.O.O.O.O.O.O.O.O.4     O / O.O.O.O.O.O.O.O.O.O. .=     3 o.O.b   . W O.O.O.O.O.O.O.O.O.O.y     > o.O.O.O.O.O.O.O.O.O.O.O.O.O.",
"O.O.O.O.O.O.O.O.O.O.k       1 o.O.O.O.O.O.O.O.O.O.O.Z       c O. .@   8 O.O.O.O.O.O.O.O.O.O.n       S O.O.O.O.O.O.O.O.O.O.O.O.O.",
"O.O.O.O.O.O.O.O.O.O.I         l O.O.O.O.O.O.O.O.O.O. .o     $ o.O.9     { O.O.O.O.O.O.O.O.O.U       > O.O.O.O.O.O.O.O.O.O.O.O.O.",
"O.O.O.O.O.O.O.O.O.O.[   # O   o ) O.O.O.O.O.O.O.O.O.O.<       ^ O.j     U O.O.O.O.O.O.O.O.O.[         U O.O.O.O.O.O.O.O.O.O.O.O.",
"O.O.O.O.O.O.O.O.O.O.O.o m O.J   e O.O.O.O.O.O.O.O.O.O.2       ^ O.g     I O.O.O.O.O.O.O.O.O.O.$       t O.O.O.O.O.O.O.O.O.O.O.O.",
"O.O.O.O.O.O.O.O.O.O.O.o K O.C     R O.O.O.O.O.O.O.O.O.*     @ o.O.e     E O.O.O.O.O.O.O.O.O.O.3       O o.O.O.O.O.O.O.O.O.O.O.O.",
"O.O.O.O.O.O.O.O.O.O./   / O.j     s O.O.O.O.O.O.O.O.`       f O.o.@   o ..O.O.O.O.O.O.O.O.O.O.8         T O.O.O.O.O.O.O.O.O.O.O.",
"O.O.O.O.O.O.O.O.O.O.k   ..O.w     b O.O.O.O.O.O.O.O.b     O [ O.S     7 O.O.O.O.O.O.O.O.O.O.O.7         m O.O.O.O.O.O.O.O.O.O.O.",
"O.O.O.O.O.O.O.O.O.[ O : O.O.<   < ..O.O.O.O.O.O.O.o.=     k O.o.,     A O.O.O.O.O.O.O.O.O.O.O.=         j O.O.O.O.O.O.O.O.O.O.O.",
"O.O.O.O.O.O.O.O.O.d   d O.| . % ` O.O.O.O.O.O.O.O.Z     *  .O.B     $ ..O.O.O.O.O.O.O.O.O.O.~   $       l O.O.O.O.O.O.O.O.O.O.O.",
"O.O.O.O.O.O.O.O._ o   U O.K   A O.O.O.O.O.O.O.O...=     D O.{ $     z O.O.O.O.O.O.O.O.O.O...4 & { { u o / O.O.O.O.O.O.O.O.O.O.O.",
"O.O.O.O.O.O.O.O.d   $ o.O.u   _ O.O.O.O.O.O.O.O.n     5 O.O.s     O { O.O.O.O.O.O.O.O.O...8 ; ) O...> n O.O.O.R s 0 j _ O.O.O.O.",
"O.O.O.O.O.O.O.O.;   r O.O.$   / O.O.O.O.O.O.O. .$     K O.~ .     p O.O.O.O.O.O.O.O.O...8 2 { O.X.r t O.O.O.k         O U O.O.O.",
"O.O.O.O.O.O.O.O.O   x O.!     P O.O.O.O.O.O.O.b     $ o.O.y       / O.O.O.O.O.O.O.O.O.q ;  .O.} 6 ,  .O.O.T       < ;   $  .O.O.",
"O.O.O.O.O.O.O.O.$   M O.I     f O.O.O.O.O.O.O.=     r O.X.O     8 O.O.O.O.O.O.O.O.O.H   Z O.{ ,   K O.O.O.p       S { @   D O.O.",
"O.O.O.O.O.O.O.O.7   k O.)     = O.O.O.O.O.O.Q       z O.!       N O.O.O.O.O.O.O.O.O.p   ( O.k     [ O.O.O.8   1 D O.O.<   M O.O.",
"O.O.O.O.O.O.O.O.b   6 O.O.;     R O.O.O.O.O.z       A O.J       / O.O.O.O.O.O.O.O.O.y   ` O.g     ^ O.O.O.d   > | O.E o   U O.O.",
"O.O.O.O.O.O.O.O.^   . ` O.b     u O.O.O.O.O.y       T O.n       ..O.O.O.O.O.O.O.O.O.b   I O.D     b O.O.O./ o   $ 2 o   < o.O.O.",
"O.O.O.O.O.O.O.O.O.=   j O.} O   O  .O.O.O.O.j       ! O.k     o O.O.O.O.O.O.O.O.O.O._   f O. .%   $ | O.O.O.K @       < ` O.O.O.",
"O.O.O.O.O.O.O.O.O.g   #  .O.s     J O.O.O.O.I       ) O.g        .O.O.O.O.O.O.O.O.O.O.4 $ | O.M     f O.O.O.O.} A n P o.O.O.O.O.",
"O.O.O.O.O.O.O.O.O.I     C O.Q     y O.O.O.O.o.*     ` O.s       U O.O.O.O.O.O.O.O.O.O.C   l O.o.1   . E O.O.O.O.O.O.O.O.O.O.O.O.",
"O.O.O.O.O.O.O.O.O.[     0 O.O.$   = O.O.O.O.O.n     / O.g       p O.O.O.O.O.O.O.O.O.O. .O o / O.! o   ;  .O.O.O.O.O.O.O.O.O.O.O.",
"O.O.O.O.O.O.O.O.O.o.    O O.O.7     { O.O.{ O.X.;   Q O.b       +  .O.O.O.O.O.O.O.O.O.O.8   6 O.O.k     j O.O.O.O.O.O.O.O.O.O.O.",
"O.O.O.O.O.O.O.O.O.[     X O.O.w     E O.O.x ' O.R X J O.Z         m O.O.O.O.O.O.O.O.O.O.d     S O. .*   O  .O.O.O.O.O.O.O.O.O.O.",
"O.O.O.O.O.O.O.O.O.J     . O.O.8     D O.O.f w O.O.n b O.R         $ | O.O.O.O.O.O.O.O.O.u     & | O.n     U O.O.O.O.O.O.O.O.O.O.",
"O.O.O.O.O.O.O.O.O.9     * O.O.1     C O.O.j   C O.O./ O...O         k O.O.O.O.O.O.O.O.O.<       v O.{ o   z O.O.O.O.O.O.O.O.O.O.",
"O.O.O.O.O.O.O.O.Q       y O.X.o     V O.O.l   o U O.O.O.O.6     > v o / O.O.O.O.O.O.O./         > O.O.>   8 O.O.O.O.O.O.O.O.O.O.",
"O.O.O.O.O.O.O.O.4       U O.P       G O.O.C     o C O.O.O.M   ; ..O.= 8 O.O.O.O.O.O.O.s         . o.O.9   = O.O.O.O.O.O.O.O.O.O.",
"O.O.O.O.O.O.O.A       8 O.O.w       Q O.O.U         2 U O.} O O O.O.8   G O.O.O.O.O.' O , * o   & O.O.5   . o.O.O.O.O.O.O.O.O.O.",
"O.O.O.O.O.O. .&     @ ` O.W       + o.O.O.| .         * o.O.f * O.O.6   =  .O.O.O.O.d o O.O.0   z O. .O     ` O.O.O.O.O.O.O.O.O.",
"O.O.O.O.O.O.z       D O.o.<       u O.O.O.O.2           S O.[ w O.O.$     c O.O.O.[ o   ] O.l = ..O.M       / O.O.O.O.O.O.O.O.O.",
"O.O.O.O.O...#     l O.O.j       . ! O.O.O.O.n           ; o.O.{ O.E       $  .O.O.x     C O.[ R O.[ #       [ O.O.O.O.O.O.O.O.O.",
"O.O.O.O.O.K     r O.O.D         g O.O.O.O.O.{ O           M O.O.O.p         n O.O.1     ; ..O.O.O.w       * O.O.O.O.O.O.O.O.O.O.",
"O.O.O.O.O.B   7 ..O.E O       8 o.O.O.O.O.O.O.j           @ ] O.} O         6 O.O.o       J O.O.l         l O.O.O.O.O.O.O.O.O.O.",
"O.O.O.O.O.Y 7  .O.` &       p ..O.O.O.O.O.O.O. .=           e O.O.y         X  .O.$     M O.O.A         >  .O.O.O.O.O.O.O.O.O.O.",
"O.O.O.O.O.O...O.' -     8 Y O.O.O.O.O.O.O.O.O.O.E O           K O.| =         / O.c # J O.O.A .       6 [ O.O.O.O.O.O.O.O.O.O.O.",
"O.O.O.O.O.O.O.O.J n H [ O.O.O.O.O.O.O.O.O.O.O.O.O.J 8 8 8 8 8 u o.O.E 8 8 8 8 | O.O.o.O.O.! 0 8 8 0 F O.O.O.O.O.O.O.O.O.O.O.O.O.",
"O.O.O.O.O.O.O.O.O.O.O.O.O.O.O.O.O.O.O.O.O.O.O.O.O.O.O.O.O.O.O.O.O.O.O.O.O.O.O.O.O.O.O.O.O.O.O.O.O.O.O.O.O.O.O.O.O.O.O.O.O.O.O.O.",
"O.O.O.O.O.O.O.O.O.O.O.O.O.O.O.O.O.O.O.O.O.O.O.O.O.O.O.O.O.O.O.O.O.O.O.O.O.O.O.O.O.O.O.O.O.O.O.O.O.O.O.O.O.O.O.O.O.O.O.O.O.O.O.O."
};
