/* XPM */
static char *shell_down1649009855[] = {
/* columns rows colors chars-per-pixel */
"64 64 88 1 ",
"  c #37474F",
". c #3C4C54",
"X c #3F5259",
"o c #43545C",
"O c #48565E",
"+ c #455A61",
"@ c #4C5C63",
"# c #525F66",
"$ c #4A6067",
"% c #556369",
"& c #59666D",
"* c #50696F",
"= c #536D73",
"- c #5E6B72",
"; c #577278",
": c #59757B",
"> c #5B787E",
", c #626F75",
"< c #667278",
"1 c #6A757B",
"2 c #6D787E",
"3 c #5E7C81",
"4 c #717C82",
"5 c #628186",
"6 c #65858A",
"7 c #67888D",
"8 c #68898E",
"9 c #778287",
"0 c #7A858A",
"q c #7E898E",
"w c #6C8E92",
"e c #6E9296",
"r c #709497",
"t c #71969A",
"y c #74999D",
"u c #779DA0",
"i c #789FA2",
"p c #7AA2A5",
"a c #7DA6A9",
"s c #7FA9AC",
"d c #808A8F",
"f c #848E93",
"g c #879196",
"h c #8B9499",
"j c #8F989C",
"k c #929A9F",
"l c #969FA3",
"z c #80AAAD",
"x c #9AA2A6",
"c c #9FA6AA",
"v c #83AEB1",
"b c #88B5B7",
"n c #8AB7B9",
"m c #8EBCBE",
"M c #A0A7AB",
"N c #A1A9AD",
"B c #A6AEB1",
"V c #A8AFB2",
"C c #ABB2B5",
"Z c #AEB5B8",
"A c #B4BABD",
"S c #B9BFC2",
"D c #93C3C4",
"F c #95C6C8",
"G c #97C9CA",
"H c #99CCCD",
"J c #9ED2D3",
"K c #BCC2C4",
"L c #A1D6D6",
"P c #A6DDDD",
"I c #C1C6C9",
"U c #C4C9CB",
"Y c #CACED0",
"T c #CED2D4",
"R c #D1D5D7",
"E c #D5D8DA",
"W c #D9DCDE",
"Q c #DCDFE0",
"! c #DFE1E3",
"~ c #E2E4E5",
"^ c #E5E7E8",
"/ c #E6E8E9",
"( c #EBEDED",
") c #EEEFF0",
"_ c #EEF0F0",
"` c #F4F5F5",
"' c #F7F8F8",
"] c #FFFFFF",
/* pixels */
"]]]]]]]]]]]]]]]]]]]]]]]]]]]]^A0% o@4jS!']]]]]]]]]]]]]]]]]]]]]]]]",
"]]]]]]]]]]]]]]]]]]]]]]]]]`Z             <I']]]]]]]]]]]]]]]]]]]]]",
"]]]]]]]]]]]]]]]]]]]]]]]'N                  V']]]]]]]]]]]]]]]]]]]",
"]]]]]]]]]]]]]]]]]]]]]]~ .    .+>ew5=.       .^]]]]]]]]]]]]]]]]]]",
"]]]]]]]]]]]]]]]]]]]]]]q    *nLPPPPPPPPFp+    O]]]]]]]]]]]]]]]]]]",
"]]]]]]]]]]]]'Ex&%/]]]]x  >FPPPPPPPPPPPPPPD:  o]]]]]]]]]]]]]]]]]]",
"]]]]]]]]]]~g     1]]]]U  .PPPPPPPPPPPPPPPPt  g]]]]U&hI)]]]]]]]]]",
"]]]]]]]]Q1        !]]]^   LPPPPPPPPPPPPPPP=  S]]]`     +I']]]]]]",
"]]]]]]`f          4]]]'   HPPPPPPPPPPPPPPP   !]]]N      . K]]]]]",
"]]]]]T     .eGPv   ~]]]   bPPPPPPPPPPPPPPL  .`]]`   .      1`]]]",
"]]]]N.    pLPPPL   9]]]4  tPPPPPPPPPPPPPPm   ]]]c   JJvo     /]]",
"]]]h    6LPPPPPPz   ^]]B  =PPPPPPPPPPPPPPu  0]]`   yPPPPm.    (]",
"]]k    nPPPPPPPPL.  q]]T   PPPPPPPPPPPPPP;  Z]]M   JPPPPPP8   O]",
"]S    GPPPPPPPPPPs   /](   JPPPPPPPPPPPPP   W]`   yPPPPPPPPy   c",
"_   .JPPPPPPPPPPPP   f]'   FPPPPPPPPPPPPL   `]c   LPPPPPPPPP5   ",
"C   HPPPPPPPPPPPPPa   (]O  vPPPPPPPPPPPPm.  ]`   yPPPPPPPPPPJ   ",
"<  wPPPPPPPPPPPPPPP   g]f  8PPPPPPPPPPPPp  2]N   LPPPPPPPPPPPe  ",
"   bPPPPPPPPPPPPPPPp  .(A  $PPPPPPPPPPPP>  B`   yPPPPPPPPPPPPn  ",
"   mPPPPPPPPPPPPPPPP   jW   PPPPPPPPPPPP   RN   LPPPPPPPPPPPPm  ",
"+  vPPPPPPPPPPPPPPPPp   _   JPPPPPPPPPPL   )   yPPPPPPPPPPPPPv  ",
"d  8PPPPPPPPPPPPPPPPL   l   mPPPPPPPPPPD   c   LPPPPPPPPPPPPP8  ",
"K   PPPPPPPPPPPPPPPPPi   &  aPPPPPPPPPPa  -   uPPPPPPPPPPPPPP   ",
"(   DPPPPPPPPPPPPPPPPL   k  5PPPPPPPPPP3  x   LPPPPPPPPPPPPPD   ",
"]&  >PPPPPPPPPPPPPPPPPy    .oPPPPPPPPPP.     uPPPPPPPPPPPPPP>  &",
"]U   GPPPPPPPPPPPPPPPPP      PPPPPPPPPL.     LPPPPPPPPPPPPPG   U",
"]]   =PPPPPPPPPPPPPPPPPy     HPPPPPPPPF     uPPPPPPPPPPPPPP=   ]",
"]]I   bPPPPPPPPPPPPPPPPL     mPPPPPPPPz     LPPPPPPPPPPPPPn   U]",
"]]]%   LPPPPPPPPPPPPPPPPt    iPPPPPPPP6    uPPPPPPPPPPPPPL   %]]",
"]]]!   3PPPPPPPPPPPPPPPPJ    >PPPPPPPPX    LPPPPPPPPPPPPP3   !]]",
"]]]]M   zPPPPPPPPPPPPPPPPr   .PPPPPPPL    uPPPPPPPPPPPPPs   c]]]",
"]]]]]@   DPPPPPPPPPPPPPPPJ    LPPPPPPH    LPPPPPPPPPPPPD   @]]]]",
"]]]]]^    LPPPPPPPPPPPPPPPw   GPPPPPPv   pPPPPPPPPPPPPJ    ^]]]]",
"]]]]]]U   $LPPPPPPPPPPPPPPJ   nPPPPPP8   LPPPPPPPPPPPL@   U]]]]]",
"]]]]]]]M   >PPPPPPPPPPPPPPPw .HPPPPPP8  pPPPPPPPPPPPP>   c]]]]]]",
"]]]]]]]]0   8PPPPPPPPPPPPPPPmHPPPPPPPJ36PPPPPPPPPPPP8  .0]]]]]]]",
"]]]]]]]]'&   ePPPPPPPPPPPPPPPPPPPPPPPPPPPPPPPPPPPPPr   &]]]]]]]]",
"]]]]]]]]]`..  yPPPPPPPPPPPPPPPPPPPPPPPPPPPPPPPPPPPy   .`]]]]]]]]",
"]]]]]]]]]](    yPPPPPPPPPPPPPPPPPPPPPPPPPPPPPPPPPy    (]]]]]]]]]",
"]]]]]]]]]]]/    tPPPPPPPPPPPPPPPPPPPPPPPPPPPPPPPt    /]]]]]]]]]]",
"]]]]]]]]]]]]^    ePPPPPPPPPPPPPPPPPPPPPPPPPPPPPw    /]]]]]]]]]]]",
"]]]]]]]]]]]]]/    6PPPPPPPPPPPPPPPPPPPPPPPPPPP6    /]]]]]]]]]]]]",
"]]]]]]]]]]]]]]/.   :LPPPPPPPPPPPPPPPPPPPPPPPL:   ./]]]]]]]]]]]]]",
"]]]]]]]]]]]]]]](.   $JPPPPPPPPPPPPPPPPPPPPPJ$   .(]]]]]]]]]]]]]]",
"]]]]]]]]]]]]]]]]`%  . HPPPPPPPPPPPPPPPPPPPH    %`]]]]]]]]]]]]]]]",
"]]]]]]]]]]]]]]]]]'2    mPPPPPPPPPPPPPPPPPm    2']]]]]]]]]]]]]]]]",
"]]]]]]]]]]]]]]]]]]]h    zPPPPPPPPPPPPPPPs    h]]]]]]]]]]]]]]]]]]",
"]]]]]]]]]]]]]]]]]]]]B    wPPPPPPPPPPPPPe    B]]]]]]]]]]]]]]]]]]]",
"]]]]]]]]]]]]]]]]]]]]]I    =JPPPPPPPPPL=    U]]]]]]]]]]]]]]]]]]]]",
"]]]]]]]]]]]]]]]]]]]]]]W.    DPPPPPPPD    .W]]]]]]]]]]]]]]]]]]]]]",
"]]]]]]]]]]]]]]]]]]]]]]](#   .LPPPPPL.   #(]]]]]]]]]]]]]]]]]]]]]]",
"]]]]]]]]]]]]]]]]]]]]]]]]^    JPPPPPJ    ^]]]]]]]]]]]]]]]]]]]]]]]",
"]]]]]]]]]]]]]]]]]]]]]]](    ePPPPPPPw    (]]]]]]]]]]]]]]]]]]]]]]",
"]]]]]]]]]]]]]]]]]]]]]]`o   tPPPPPPPPPt   o`]]]]]]]]]]]]]]]]]]]]]",
"]]]]]]]]]]]]]]]]]]]]]]9   yPPPPPPPPPPPy   9]]]]]]]]]]]]]]]]]]]]]",
"]]]]]]]]]]]]]]]]]]]]]S   wPPPPPPPPPPPPPw   S]]]]]]]]]]]]]]]]]]]]",
"]]]]]]]]]]]]]]]]]]]]`   *PPPPPPPPPPPPPPP*   `]]]]]]]]]]]]]]]]]]]",
"]]]]]]]]]]]]]]]]]]]]C   JPPPPPPPPPPPPPPPJ   C]]]]]]]]]]]]]]]]]]]",
"]]]]]]]]]]]]]]]]]]]]@  yPPPPPPPPPPPPPPPPPt  @]]]]]]]]]]]]]]]]]]]",
"]]]]]]]]]]]]]]]]]]]]   HPPPPPPPPPPPPPPPPPH   ]]]]]]]]]]]]]]]]]]]",
"]]]]]]]]]]]]]]]]]]]]   aPPPPPPPPPPPPPPPPPa   ]]]]]]]]]]]]]]]]]]]",
"]]]]]]]]]]]]]]]]]]]]g   oaHPPPPPPPPPPPHao   h]]]]]]]]]]]]]]]]]]]",
"]]]]]]]]]]]]]]]]]]]](       o;8wrw7;+       _]]]]]]]]]]]]]]]]]]]",
"]]]]]]]]]]]]]]]]]]]]](o                   o(]]]]]]]]]]]]]]]]]]]]",
"]]]]]]]]]]]]]]]]]]]]]]]Y,               ,Y]]]]]]]]]]]]]]]]]]]]]]"
};
