/* XPM */
static char *shell_right1649009878[] = {
/* columns rows colors chars-per-pixel */
"64 64 87 1 ",
"  c #37474F",
". c #3C4C54",
"X c #3F5259",
"o c #43545C",
"O c #48565E",
"+ c #455A61",
"@ c #4C5C63",
"# c #4A6067",
"$ c #4B6168",
"% c #556369",
"& c #59666D",
"* c #50696F",
"= c #536D73",
"- c #5E6B72",
"; c #567177",
": c #577278",
"> c #59757B",
", c #5B787E",
"< c #626F75",
"1 c #667278",
"2 c #6A757B",
"3 c #6D787E",
"4 c #5E7C81",
"5 c #6F7A80",
"6 c #717C82",
"7 c #628186",
"8 c #65858A",
"9 c #67888D",
"0 c #68898E",
"q c #778287",
"w c #7A858A",
"e c #7E898E",
"r c #6C8E92",
"t c #6E9296",
"y c #709497",
"u c #71969A",
"i c #74999D",
"p c #779DA0",
"a c #7AA2A5",
"s c #7DA6A9",
"d c #7FA9AC",
"f c #808A8F",
"g c #848E93",
"h c #879196",
"j c #8B9499",
"k c #929A9F",
"l c #969FA3",
"z c #80AAAD",
"x c #9AA2A6",
"c c #9FA6AA",
"v c #83AEB1",
"b c #88B5B7",
"n c #8EBCBE",
"m c #A0A7AB",
"M c #A1A9AD",
"N c #A6AEB1",
"B c #ABB1B5",
"V c #AEB5B8",
"C c #B1B7BA",
"Z c #B4BABD",
"A c #B9BFC2",
"S c #93C3C4",
"D c #95C6C8",
"F c #97C9CA",
"G c #99CCCD",
"H c #9ED2D3",
"J c #BCC2C4",
"K c #A1D6D6",
"L c #A6DDDD",
"P c #C1C6C9",
"I c #C4C9CB",
"U c #CACED0",
"Y c #CED2D4",
"T c #D1D5D7",
"R c #D5D8DA",
"E c #D9DCDE",
"W c #DCDFE0",
"Q c #DFE1E3",
"! c #E2E4E5",
"~ c #E5E7E8",
"^ c #E6E8E9",
"/ c #EBEDED",
"( c #EEEFF0",
") c #EFF0F1",
"_ c #F4F5F5",
"` c #F7F8F8",
"' c #FFFFFF",
/* pixels */
"'''''''''''''')B1  @eA/'''''''''''''''''''''''''''''''''''''''''",
"''''''''''''`M .       %I'''''''''''''''''''''''''''''''''''''''",
"'''''''''''/o             P'''''''''''''''''''''''''''''''''''''",
"''''''''''^     rbSv9      %Q'''''''''''''''''''''''''''''''''''",
"'''''''''_    7KLLLLLLS4     M''''''''''''''''''''''''''''''''''",
"'''''''''3   iLLLLLLLLLLF=    @^''''''''''''''''''''''''''''''''",
"''''''''J   0LLLLLLLLLLLLLb     I'''''''''''''''''''''''''''''''",
"'''''''`   .LLLLLLLLLLLLLLLK4    M''''''''''''''''''''''''''''''",
"'''''''J   nLLLLLLLLLLLLLLLLLd    w`''''''''''''''''''''''''''''",
"'''''''@  oLLLLLLLLLLLLLLLLLLLS.  .&_'''''''''''''''''''''''''''",
"''''''(   vLLLLLLLLLLLLLLLLLLLLH@   .)''''''''''''''''''''''''''",
"''''''P   HLLLLLLLLLLLLLLLLLLLLLK,    ^'''''''''''''''''''''''''",
"''''''j  .KLLLLLLLLLLLLLLLLLLLLLLL9    ^''''''''''''''''''''''''",
"''''''&    uKLLLLLLLLLLLLLLLLLLLLLLy    ^'''''''''''''''''''''''",
"''''''I      iKLLLLLLLLLLLLLLLLLLLLLi    /''''''''''''''''''''''",
"'''''''_m      iKLLLLLLLLLLLLLLLLLLLLi    /'''''''''''''''''''''",
"'''''''''_c      iKLLLLLLLLLLLLLLLLLLLy.  ._''''''''''''''''''''",
"'''''''''''_M      iKLLLLLLLLLLLLLLLLLLr   %`'''''''''''''''''''",
"'''''''''''''_M      iKLLLLLLLLLLLLLLLLL8   5'''''''''''''''''''",
"'''~OohJQ`'''''_c      pKLLLLLLLLLLLLLLLL>   j''''''''''''''''''",
"''`.       wVE_''_M      pKLLLLLLLLLLLLLLK#   M''''''''_V@  h(''",
"''N             3NT)M      pKLLLLLLLLLLLLLH    I''''''A       /'",
"'`   :u=             -x      pKLLLLLLLLLLLLG    E'''`6.       o'",
"'P   DLLLHnp:                  aKLLLLLLLLLLLn    ('/o    iGa   U",
"'1  OLLLLLLLLLHSa,              .pKLLLLLLLLLLz   $^    *GLLLO  <",
"`.  aLLLLLLLLLLLLLLHSd4.          8LLLLLLLLLLLr       rLLLLLd   ",
"W   FLLLLLLLLLLLLLLLLLLLKDz8X  .  4LLLLLLLLLLLL=     iLLLLLLG   ",
"A   LLLLLLLLLLLLLLLLLLLLLLLLLKFv09HLLLLLLLLLLLLK    iLLLLLLLL   ",
"j. .LLLLLLLLLLLLLLLLLLLLLLLLLLLLLLLLLLLLLLLLLLLLD  tLLLLLLLLLo  ",
"3  =LLLLLLLLLLLLLLLLLLLLLLLLLLLLLLLLLLLLLLLLLLLLLKKLLLLLLLLLL;  ",
"'  8LLLLLLLLLLLLLLLLLLLLLLLLLLLLLLLLLLLLLLLLLLLLLLLLLLLLLLLLL9  ",
"o  0LLLLLLLLLLLLLLLLLLLLLLLLLLLLLLLLLLLLLLLLLLLLLLLLLLLLLLLLLr  ",
"   uLLLLLLLLLLLLLLLLLLLLLLLLLLLLLLLLLLLLLLLLLLLLLLLLLLLLLLLLLu  ",
"%  ,LLLLLLLLLLLLLLLLLLLLLLLLLLLLLLLLLLLLLLLLLLLLLLLLLLLLLLLLLr  ",
"w  +LLLLLLLLLLLLLLLLLLLLLLLLLLKGnGLLLLLLLLLLLLLLLLLLLLLLLLLLL8  ",
"Z  .KLLLLLLLLLLLLLLLLLLLLGni,.    GLLLLLLLLLLLLLLKKLLLLLLLLLL;  ",
"~   bLLLLLLLLLLLLLLHns7o          nLLLLLLLLLLLLLD  tLLLLLLLLLo  ",
"'   *LLLLLLLLKDzr$               tLLLLLLLLLLLLLH    iLLLLLLLL   ",
"'V   DLKFbu=                   tHLLLLLLLLLLLLLL=     iLLLLLLG   ",
"'_   ,.    .        .&k      tHLLLLLLLLLLLLLLLr       rLLLLLd   ",
"''M.       .  .ogCE(l      uHLLLLLLLLLLLLLLLLz   $^    *HLLLo  <",
"''`       6NY/`''/k     .iHLLLLLLLLLLLLLLLLLn    /'/o    iGa   Y",
"'''!flP~`''''''/j      iKLLLLLLLLLLLLLLLLLLG    E'''`6        X'",
"'''''''''''''~g      aKLLLLLLLLLLLLLLLLLLLH    P''''''Z       /'",
"'''''''''''~e      aKLLLLLLLLLLLLLLLLLLLLL#   N''''''''`V@  j/''",
"'''''''''!q      sKLLLLLLLLLLLLLLLLLLLLLL>   j''''''''''''''''''",
"'''''''Q6      sKLLLLLLLLLLLLLLLLLLLLLLL7   5'''''''''''''''''''",
"'''''/2      dLLLLLLLLLLLLLLLLLLLLLLLLLt   %`'''''''''''''''''''",
"'''''%     zLLLLLLLLLLLLLLLLLLLLLLLLLLu   ._''''''''''''''''''''",
"'''''&   zLLLLLLLLLLLLLLLLLLLLLLLLLLLi    ('''''''''''''''''''''",
"'''''x   LLLLLLLLLLLLLLLLLLLLLLLLLLLu    /''''''''''''''''''''''",
"'''''R   FLLLLLLLLLLLLLLLLLLLLLLLLLt    ~'''''''''''''''''''''''",
"'''''`   tLLLLLLLLLLLLLLLLLLLLLLLL8    ~''''''''''''''''''''''''",
"''''''h  .KLLLLLLLLLLLLLLLLLLLLLL,    /'''''''''''''''''''''''''",
"''''''!   aLLLLLLLLLLLLLLLLLLLLH@   .(''''''''''''''''''''''''''",
"'''''''2   KLLLLLLLLLLLLLLLLLLF.   &_'''''''''''''''''''''''''''",
"'''''''W   8LLLLLLLLLLLLLLLLLz    w`''''''''''''''''''''''''''''",
"''''''''g   bLLLLLLLLLLLLLLK4    c''''''''''''''''''''''''''''''",
"''''''''_    GLLLLLLLLLLLLb     I'''''''''''''''''''''''''''''''",
"'''''''''Y    HLLLLLLLLLF=    @~''''''''''''''''''''''''''''''''",
"''''''''''M    FLLLLLLS,.    m''''''''''''''''''''''''''''''''''",
"'''''''''''j    rbnv0      %Q'''''''''''''''''''''''''''''''''''",
"''''''''''''l            .P'''''''''''''''''''''''''''''''''''''",
"'''''''''''''A         %I`''''''''''''''''''''''''''''''''''''''"
};
