/* XPM */
static char *shell_left1649009869[] = {
/* columns rows colors chars-per-pixel */
"64 64 85 1 ",
"  c #37474F",
". c #3C4C54",
"X c #3F5259",
"o c #43555C",
"O c #48565E",
"+ c #455A61",
"@ c #4C5C63",
"# c #525F66",
"$ c #4A6067",
"% c #4B6168",
"& c #55636A",
"* c #59666D",
"= c #50696F",
"- c #536D73",
"; c #5E6B72",
": c #567177",
"> c #577278",
", c #59757B",
"< c #5B787E",
"1 c #626F75",
"2 c #677379",
"3 c #6A757B",
"4 c #6D787E",
"5 c #5E7C81",
"6 c #6F7A80",
"7 c #727D83",
"8 c #628186",
"9 c #65858A",
"0 c #67888D",
"q c #68898E",
"w c #778287",
"e c #7A858A",
"r c #7E898E",
"t c #6C8E92",
"y c #6E9296",
"u c #709497",
"i c #71969A",
"p c #74999D",
"a c #779DA0",
"s c #7AA2A5",
"d c #7DA6A9",
"f c #848E93",
"g c #879196",
"h c #8B9499",
"j c #929A9F",
"k c #969FA3",
"l c #80AAAD",
"z c #9AA2A6",
"x c #9FA6AA",
"c c #83AEB1",
"v c #88B5B7",
"b c #8AB7B9",
"n c #8EBCBE",
"m c #A0A7AB",
"M c #A1A9AD",
"N c #A6AEB1",
"B c #ABB2B5",
"V c #AEB5B8",
"C c #B1B7BA",
"Z c #B3B9BC",
"A c #B9BFC2",
"S c #93C3C4",
"D c #95C6C8",
"F c #97C9CA",
"G c #99CCCD",
"H c #9ED2D3",
"J c #BCC2C4",
"K c #A1D6D6",
"L c #A6DDDD",
"P c #C1C6C9",
"I c #C4C9CB",
"U c #CACED0",
"Y c #CED2D4",
"T c #D5D8DA",
"R c #D9DCDE",
"E c #DFE2E3",
"W c #E2E4E5",
"Q c #E5E7E8",
"! c #E6E8E9",
"~ c #EBEDED",
"^ c #EEEFF0",
"/ c #EEF0F0",
"( c #F4F5F5",
") c #F7F8F8",
"_ c #FFFFFF",
/* pixels */
"__________________________________________~Jr+  2B(_____________",
"________________________________________I&         Z____________",
"______________________________________P             j___________",
"____________________________________E&      qcnvt   .h__________",
"___________________________________x    .5SLLLLLLF    M_________",
"_________________________________!@    -GLLLLLLLLLH.   U________",
"________________________________I     vLLLLLLLLLLLLG    (_______",
"_______________________________m    5KLLLLLLLLLLLLLLv   f_______",
"_____________________________)e    lLLLLLLLLLLLLLLLLL9  .R______",
"____________________________(*    SLLLLLLLLLLLLLLLLLLH   3______",
"___________________________~..  @HLLLLLLLLLLLLLLLLLLLLs.  W_____",
"__________________________!    <KLLLLLLLLLLLLLLLLLLLLLK   g_____",
"_________________________!    0LLLLLLLLLLLLLLLLLLLLLLLLy   )____",
"________________________!    uLLLLLLLLLLLLLLLLLLLLLLLLLF   T____",
"_______________________~    pLLLLLLLLLLLLLLLLLLLLLLLLLLL   z____",
"______________________~    pLLLLLLLLLLLLLLLLLLLLLLLLLLLc  .&____",
"_____________________(.   iLLLLLLLLLLLLLLLLLLLLLLLLLLl    .&____",
"____________________)&   tLLLLLLLLLLLLLLLLLLLLLLLLLl      3!____",
"____________________6   9LLLLLLLLLLLLLLLLLLLLLLLKd      7E______",
"___________________h   ,LLLLLLLLLLLLLLLLLLLLLLKd.     wW________",
"___~g  @B(________N   $KLLLLLLLLLLLLLLLLLLLLKs    . rW__________",
"__~       J______P    KLLLLLLLLLLLLLLLLLLLKs      f!____________",
"__o        w(___R    GLLLLLLLLLLLLLLLLLLKa      g~______)WIkrW__",
"_U   dGp    o~_/    nLLLLLLLLLLLLLLLLLHp      j~__)~YN7  .    )_",
"_1  OLLLH=    !&   lLLLLLLLLLLLLLLLLHi      k/RZfo            M_",
"(   dLLLLLt       tLLLLLLLLLLLLLLLHy      j*              .<   (",
"R   GLLLLLLp     -LLLLLLLLLLLLLLHy                   -ivFKLF   V",
"C   LLLLLLLLp    KLLLLLLLLLLLLLt.              %tlFKLLLLLLLL%  .",
"h  oLLLLLLLLLy  SLLLLLLLLLLLLLn          o8sSHLLLLLLLLLLLLLLb   ",
"2  >LLLLLLLLLLHHLLLLLLLLLLLLLLG.   .<anGLLLLLLLLLLLLLLLLLLLLK.  ",
"#  9LLLLLLLLLLLLLLLLLLLLLLLLLLLGvGKLLLLLLLLLLLLLLLLLLLLLLLLLL+  ",
"_  tLLLLLLLLLLLLLLLLLLLLLLLLLLLLLLLLLLLLLLLLLLLLLLLLLLLLLLLLL<  ",
"   uLLLLLLLLLLLLLLLLLLLLLLLLLLLLLLLLLLLLLLLLLLLLLLLLLLLLLLLLLu  ",
".  tLLLLLLLLLLLLLLLLLLLLLLLLLLLLLLLLLLLLLLLLLLLLLLLLLLLLLLLLLy  ",
"#  9LLLLLLLLLLLLLLLLLLLLLLLLLLLLLLLLLLLLLLLLLLLLLLLLLLLLLLLLL9  ",
"2  :LLLLLLLLLLHKLLLLLLLLLLLLLLLLLLLLLLLLLLLLLLLLLLLLLLLLLLLLL:  ",
"h  oLLLLLLLLLy  FLLLLLLLLLLLLLLLLLLLLLLLLLLLLLLLLLLLLLLLLLLLLX  ",
"C  .LLLLLLLLp    KLLLLLLLLLLLLH00cGKLLLLLLLLLLLLLLLLLLLLLLLLK   ",
"R   GLLLLLLp     -LLLLLLLLLLLL5     X9lFKLLLLLLLLLLLLLLLLLLLF   ",
"(   dLLLLLt.      tLLLLLLLLLLL9          .5dDHLLLLLLLLLLLLLLs   ",
"_1  oLLLH=    !#   lLLLLLLLLLLLa               <snHLLLLLLLLL+  2",
"_U   dGp    o~_~    nLLLLLLLLLLLKs                  >pnHLLLD   J",
"__o        w(___R    FLLLLLLLLLLLLKa      x;        .    =p>   )",
"__!       A______P    KLLLLLLLLLLLLLKa      x/TN4             B_",
"___/h  @V(________N   $KLLLLLLLLLLLLLLKa      x(__(RCe       .)_",
"______)____________h   <LLLLLLLLLLLLLLLLKp      M(_____(WJgooQ__",
"____________________6   8LLLLLLLLLLLLLLLLLKa      x(____________",
"____________________)&  .tLLLLLLLLLLLLLLLLLLHa      m(__________",
"_____________________(.   iLLLLLLLLLLLLLLLLLLLKp      M(________",
"______________________~.   pLLLLLLLLLLLLLLLLLLLLKi      x(______",
"_______________________!    pLLLLLLLLLLLLLLLLLLLLLKp      I_____",
"________________________!    yLLLLLLLLLLLLLLLLLLLLLLHp    &_____",
"_________________________Q    qLLLLLLLLLLLLLLLLLLLLLLLK.  h_____",
"__________________________!.   <LLLLLLLLLLLLLLLLLLLLLLH   P_____",
"___________________________~.   +HLLLLLLLLLLLLLLLLLLLLc   ^_____",
"____________________________(*    DLLLLLLLLLLLLLLLLLLLo  +______",
"_____________________________)e    dLLLLLLLLLLLLLLLLLn   P______",
"_______________________________m    5KLLLLLLLLLLLLLLK.   )______",
"________________________________I.    vLLLLLLLLLLLLLt   P_______",
"_________________________________!@   .-FLLLLLLLLLLp   4________",
"__________________________________)x     <SLLLLLLK8    (________",
"____________________________________E&      qcnvy    .!_________",
"______________________________________P .           O~__________",
"________________________________________I&         x)___________"
};
