/* XPM */
static char *d25b5274124e4607adc17cf41a4cc418[] = {
/* columns rows colors chars-per-pixel */
"64 64 110 2 ",
"   c #37474F",
".  c #3A4A52",
"X  c #3E5057",
"o  c #3E5159",
"O  c #404F57",
"+  c #405057",
"@  c #43545B",
"#  c #48575E",
"$  c #44585F",
"%  c #49585F",
"&  c #455B62",
"*  c #4B5D64",
"=  c #505E65",
"-  c #4A6066",
";  c #4D656B",
":  c #4F686F",
">  c #526066",
",  c #55636A",
"<  c #58656C",
"1  c #50696F",
"2  c #5C696F",
"3  c #536D73",
"4  c #5E6B72",
"5  c #567176",
"6  c #59757B",
"7  c #5C797E",
"8  c #626F75",
"9  c #667379",
"0  c #69757B",
"q  c #6E7A7F",
"w  c #5F7D82",
"e  c #607E83",
"r  c #6F7A80",
"t  c #727E83",
"y  c #628186",
"u  c #66868B",
"i  c #698A8E",
"p  c #768186",
"a  c #7B868B",
"s  c #7E898E",
"d  c #6A8C90",
"f  c #6F9296",
"g  c #719599",
"h  c #749A9E",
"j  c #779DA0",
"k  c #799FA3",
"l  c #7BA2A5",
"z  c #7DA6A8",
"x  c #7EA8AB",
"c  c #838D92",
"v  c #8B9499",
"b  c #8F989C",
"n  c #919A9E",
"m  c #969EA2",
"M  c #81AAAD",
"N  c #9AA2A6",
"B  c #9EA5A9",
"V  c #83AEB1",
"C  c #86B2B4",
"Z  c #89B5B7",
"A  c #89B7B9",
"S  c #8CBABC",
"D  c #A2A9AD",
"F  c #A6ADB1",
"G  c #A8AFB2",
"H  c #ACB2B6",
"J  c #AFB5B9",
"K  c #B1B7BA",
"L  c #B4BABD",
"P  c #8FBEC0",
"I  c #90BFC1",
"U  c #B8BEC1",
"Y  c #92C2C4",
"T  c #95C7C8",
"R  c #97C9CA",
"E  c #99CBCC",
"W  c #9CCFD0",
"Q  c #9ED2D3",
"!  c #BDC3C5",
"~  c #A1D6D6",
"^  c #A6DDDD",
"/  c #C2C7C9",
"(  c #C4C9CC",
")  c #C8CCCF",
"_  c #CBCFD1",
"`  c #CDD1D3",
"'  c #CED2D4",
"]  c #D2D5D7",
"[  c #D2D6D8",
"{  c #D4D7D9",
"}  c #D5D9DA",
"|  c #D7DADC",
" . c #DADDDF",
".. c #DCDFE1",
"X. c #DEE1E2",
"o. c #E0E2E3",
"O. c #E2E4E5",
"+. c #E5E7E8",
"@. c #E7E9EA",
"#. c #ECEDEE",
"$. c #EEEFF0",
"%. c #EFF0F1",
"&. c #F2F3F3",
"*. c #F2F3F4",
"=. c #F3F4F5",
"-. c #F5F6F6",
";. c #F7F8F8",
":. c #FAFBFB",
">. c #FBFBFC",
",. c white",
/* pixels */
",.,.,.,.,.,.,.,.,.,.,.,.,.,.,.,.,.,.,.,.,.,.,.,.=.! m t 2 * @ . . @ * 2 t m ! =.,.,.,.,.,.,.,.,.,.,.,.,.,.,.,.,.,.,.,.,.,.,.,.,.",
",.,.,.,.,.,.,.,.,.,.,.,.,.,.,.,.,.,.,.,.,.,.] t .                             . t [ ,.,.,.,.,.,.,.,.,.,.,.,.,.,.,.,.,.,.,.,.,.,.",
",.,.,.,.,.,.,.,.,.,.,.,.,.,.,.,.,.,.,.,.,.b           . & ; 3 6 6 3 ; & .           n ,.,.,.,.,.,.,.,.,.,.,.,.,.,.,.,.,.,.,.,.,.",
",.,.,.,.,.,.,.,.,.,.,.,.,.,.,.,.,.,.,.,.m       : j S ~ ^ ^ ^ ^ ^ ^ ^ ^ ~ S h ;       m ,.,.,.,.,.,.,.,.,.,.,.,.,.,.,.,.,.,.,.,.",
",.,.,.,.,.,.,.,.,.,.,.,.,.,.,.,.,.,.,.>.+   - P ^ ^ ^ ^ ^ ^ ^ ^ ^ ^ ^ ^ ^ ^ ^ ^ S *   + >.,.,.,.,.,.,.,.,.,.,.,.,.,.,.,.,.,.,.,.",
",.,.,.,.,.,.,.,.,.,.,.,.,.,.,.,.,.,.,.+.    M ^ ^ ^ ^ ^ ^ ^ ^ ^ ^ ^ ^ ^ ^ ^ ^ ^ ^ M     @.,.,.,.,.,.,.,.,.,.,.,.,.,.,.,.,.,.,.,.",
",.,.,.,.,.,.,.,.,.,.,.,.,.,.,.,.,.,.,.&..   g ^ ^ ^ ^ ^ ^ ^ ^ ^ ^ ^ ^ ^ ^ ^ ^ ^ ^ g   . *.,.,.,.,.,.,.,.,.,.,.,.,.,.,.,.,.,.,.,.",
",.,.,.,.,.,.,.,.,.,.,.,.,.,.,.,.,.,.,.,.2   & ^ ^ ^ ^ ^ ^ ^ ^ ^ ^ ^ ^ ^ ^ ^ ^ ^ ^ &   4 ,.,.,.,.,.,.,.,.,.,.,.,.,.,.,.,.,.,.,.,.",
",.,.,.,.,.,.,.,.,.,.,.,.,.,.,.,.,.,.,.,.J     g ^ ^ ^ ^ ^ ^ ^ ^ ^ ^ ^ ^ ^ ^ ^ ^ g     J ,.,.,.,.,.,.,.,.,.,.,.,.,.,.,.,.,.,.,.,.",
",.,.,.,.,.,.,.,.,.,.,.,.,.,.,.,.,.,.,.,.>.<   . S ^ ^ ^ ^ ^ ^ ^ ^ ^ ^ ^ ^ ^ ^ S .   < >.,.,.,.,.,.,.,.,.,.,.,.,.,.,.,.,.,.,.,.,.",
",.,.,.,.,.,.,.,.,.,.,.,.,.,.,.,.,.,.,.,.,.{ .   @ T ^ ^ ^ ^ ^ ^ ^ ^ ^ ^ ^ ^ T @   . } ,.,.,.,.,.,.,.,.,.,.,.,.,.,.,.,.,.,.,.,.,.",
",.,.,.,.,.,.,.,.,.,.,.,.,.,.,.,.,.,.,.,.,.,.H     & E ^ ^ ^ ^ ^ ^ ^ ^ ^ ^ E &     H ,.,.,.,.,.,.,.,.,.,.,.,.,.,.,.,.,.,.,.,.,.,.",
",.,.,.,.,.,.,.,.,.,.,.,.,.,.,.,.,.,.,.,.,.,.,.N     & R ^ ^ ^ ^ ^ ^ ^ ^ R &     N ,.,.,.,.,.,.,.,.,.,.,.,.,.,.,.,.,.,.,.,.,.,.,.",
",.,.,.,.,.,.,.,.,.,.,.,.,.,.,.,.,.,.,.,.,.,.,.,.v     $ Q ^ ^ ^ ^ ^ ^ Q $     v ,.,.,.,.,.,.,.,.,.,.,.,.,.,.,.,.,.,.,.,.,.,.,.,.",
",.,.,.,.,.,.,.,.,.,.,.,.,.,.,.,.,.,.,.,.,.,.,.,.) .     S ^ ^ ^ ^ ^ ^ S     . ) ,.,.,.,.,.,.,.,.,.,.,.,.,.,.,.,.,.,.,.,.,.,.,.,.",
",.,.,.,.,.,.,.,.,.,.,.,.,.,.,.,.,.,.,.,.,.,.,.H .     w ^ ^ ^ ^ ^ ^ ^ ^ w     . H ,.,.,.,.,.,.,.,.,.,.,.,.,.,.,.,.,.,.,.,.,.,.,.",
",.,.,.,.,.,.,.,.,.,.,.,.,.,.,.,.,.,.,.,.,.,.v     . f ^ ^ ^ ^ ^ ^ ^ ^ ^ ^ h .     c :.,.,.,.,.,.,.,.,.,.,.,.,.,.,.,.,.,.,.,.,.,.",
",.,.,.,.,.,.,.,.,.,.,.,.,.,.,.,.,.,.,.,.%.9     . C ^ ^ ^ ^ ^ ^ ^ ^ ^ ^ ^ ^ C .     9 %.,.,.,.,.,.,.,.,.,.,.,.,.,.,.,.,.,.,.,.,.",
",.,.,.,.,.,.,.,.,.,.,.,.,.,.,.,.,.,.,.+.,     & Y ^ ^ ^ ^ ^ ^ ^ ^ ^ ^ ^ ^ ^ ^ T *     > O.,.,.,.,.,.,.,.,.,.,.,.,.,.,.,.,.,.,.,.",
",.,.,.,.,.,.,.,.,.,.,.,.,.,.,.,.,.,.} #     3 Q ^ ^ ^ ^ ^ ^ ^ ^ ^ ^ ^ ^ ^ ^ ^ ^ Q 3     # ] ,.,.,.,.,.,.,.,.,.,.,.,.,.,.,.,.,.,.",
",.,.,.,.,.,.,.,.,.,.,.,.,.,.,.,.,.( O     u ^ ^ ^ ^ ^ ^ ^ ^ ^ ^ ^ ^ ^ ^ ^ ^ ^ ^ ^ ^ u     O ( ,.,.,.,.,.,.,.,.,.,.,.,.,.,.,.,.,.",
",.,.,.,.,.,.,.,.,.,.,.,.,.,.,.,.K .   . g ^ ^ ^ ^ ^ ^ ^ ^ ^ ^ ^ ^ ^ ^ ^ ^ ^ ^ ^ ^ ^ ^ g .   . J ,.,.,.,.,.,.,.,.,.,.,.,.,.,.,.,.",
",.,.,.,.,.,.,.,.,.,.,.,.,.,.,.F     . l ^ ^ ^ ^ ^ ^ ^ ^ ^ ^ ^ ^ ^ ^ ^ ^ ^ ^ ^ ^ ^ ^ ^ ^ z .     B ,.,.,.,.,.,.,.,.,.,.,.,.,.,.,.",
",.,.,.,.,.,.,.,.,.,.,.,.,.,.D     . M ^ ^ ^ ^ ^ ^ ^ ^ ^ ^ ^ ^ ^ ^ ^ ^ ^ ^ ^ ^ ^ ^ ^ ^ ^ ^ V .     B ,.,.,.,.,.,.,.,.,.,.,.,.,.,.",
",.,.,.,.,.,.,.,.,.,.,.,.,.D     o S ^ ^ ^ ^ ^ ^ ^ ^ ^ ^ ^ ^ ^ ^ ^ ^ ^ ^ ^ ^ ^ ^ ^ ^ ^ ^ ^ ^ S @     m ,.,.,.,.,.,.,.,.,.,.,.,.,.",
",.,.,.,.,.,.,.,.,.,.,.,.m     $ Y ^ ^ ^ ^ ^ ^ ^ ^ ^ ^ ^ ^ ^ ^ ^ ^ ^ ^ ^ ^ ^ ^ ^ ^ ^ ^ ^ ^ ^ ^ Y @     m ,.,.,.,.,.,.,.,.,.,.,.,.",
",.,.,.,.,.,.,.,.,.,.,.m     @ Y ^ ^ ^ ^ ^ ^ ^ ^ ^ ^ ^ ^ ^ ^ ^ ^ ^ ^ ^ ^ ^ ^ ^ ^ ^ ^ ^ ^ ^ ^ ^ ^ Y @     m ,.,.,.,.,.,.,.,.,.,.,.",
",.,.,.,.,.,.,.,.,.,.H     o I ^ ^ ^ ^ ^ ^ ^ ^ ^ ^ ^ ^ ^ ^ ^ ^ ^ ^ ^ ^ ^ ^ ^ ^ ^ ^ ^ ^ ^ ^ ^ ^ ^ ^ Y o     F ,.,.,.,.,.,.,.,.,.,.",
",.,.,.,.,.,.,.,.,.! .   X P ^ ^ ^ ^ ^ ^ ^ ^ ^ ^ ^ ^ ^ ^ ^ ^ ^ ^ ^ ^ ^ ^ ^ ^ ^ ^ ^ ^ ^ ^ ^ ^ ^ ^ ^ ^ Y o   . ! ,.,.,.,.,.,.,.,.,.",
",.,.,.,.,.,.,.,.` .   X S ^ ^ ^ ^ ^ ^ ^ ^ ^ ^ ^ ^ ^ ^ ^ ^ ^ ^ ^ ^ ^ ^ ^ ^ ^ ^ ^ ^ ^ ^ ^ ^ ^ ^ ^ ^ ^ ^ Y o   . ) ,.,.,.,.,.,.,.,.",
",.,.,.,.,.,.,. .@   . S ^ ^ ^ ^ ^ ^ ^ ^ ^ ^ ^ ^ A & k ^ ^ ^ ^ ^ ^ ^ ^ h Y ^ ^ ^ ^ ^ ^ ^ ^ ^ ^ ^ ^ ^ ^ ^ S .   @  .,.,.,.,.,.,.,.",
",.,.,.,.,.,.%.*     l ^ ^ ^ ^ ^ ^ ^ ^ ^ ^ ^ ^ ^ -   : ^ ^ ^ ^ ^ ^ ^ h   $ ^ ^ ^ ^ ^ ^ ^ ^ ^ ^ ^ ^ ^ ^ ^ ^ l     * %.,.,.,.,.,.,.",
",.,.,.,.,.,.0     d ^ ^ ^ ^ ^ ^ ^ ^ ^ ^ ^ ^ ^ M     w ^ ^ ^ ^ ^ ^ ^ j     l ^ ^ ^ ^ ^ ^ ^ ^ ^ ^ ^ ^ ^ ^ ^ ^ d     0 ,.,.,.,.,.,.",
",.,.,.,.,.m     6 ^ ^ ^ ^ ^ ^ ^ ^ ^ ^ ^ ^ ^ ^ -     h ^ ^ ^ ^ ^ ^ ^ S     & ^ ^ ^ ^ ^ ^ ^ ^ ^ ^ ^ ^ ^ ^ ^ ^ ^ 6     m ,.,.,.,.,.",
",.,.,.,.' .   * ~ ^ ^ ^ ^ ^ ^ ^ ^ ^ ^ ^ ^ ^ M       S ^ ^ ^ ^ ^ ^ ^ Q       l ^ ^ ^ ^ ^ ^ ^ ^ ^ ^ ^ ^ ^ ^ ^ ^ ~ *   . ' ,.,.,.,.",
",.,.,.-.*   . Y ^ ^ ^ ^ ^ ^ ^ ^ ^ ^ ^ ^ ^ ^ -     . Q ^ ^ ^ ^ ^ ^ ^ ^ $     & ^ ^ ^ ^ ^ ^ ^ ^ ^ ^ ^ ^ ^ ^ ^ ^ ^ I .   = -.,.,.,.",
",.,.,.n     g ^ ^ ^ ^ ^ ^ ^ ^ ^ ^ ^ ^ ^ ^ M       & ^ ^ ^ ^ ^ ^ ^ ^ ^ 5       z ^ ^ ^ ^ ^ ^ ^ ^ ^ ^ ^ ^ ^ ^ ^ ^ ^ f     n ,.,.,.",
",.,. ..   : ^ ^ ^ ^ ^ ^ ^ ^ ^ ^ ^ ^ ^ ^ ^ -       7 ^ ^ ^ ^ ^ ^ ^ ^ ^ d       & ^ ^ ^ ^ ^ ^ ^ ^ ^ ^ ^ ^ ^ ^ ^ ^ ^ ^ ;   . ..,.,.",
",.,.t   . T ^ ^ ^ ^ ^ ^ ^ ^ ^ ^ ^ ^ ^ ^ x         g ^ ^ ^ ^ ^ ^ ^ ^ ^ z         z ^ ^ ^ ^ ^ ^ ^ ^ ^ ^ ^ ^ ^ ^ ^ ^ ^ T .   t ,.,.",
",.}     i ^ ^ ^ ^ ^ ^ ^ ^ ^ ^ ^ ^ ^ ^ ^ *         C ^ ^ ^ ^ ^ ^ ^ ^ ^ Y         * ^ ^ ^ ^ ^ ^ ^ ^ ^ ^ ^ ^ ^ ^ ^ ^ ^ ^ u   . | ,.",
",.a   . Q ^ ^ ^ ^ ^ ^ ^ ^ ^ ^ ^ ^ ^ ^ z     4     W ^ ^ ^ ^ ^ ^ ^ ^ ^ ^ .   =     M ^ ^ ^ ^ ^ ^ ^ ^ ^ ^ ^ ^ ^ ^ ^ ^ ^ Q .   a ,.",
"&..   u ^ ^ ^ ^ ^ ^ ^ ^ ^ ^ ^ ^ ^ ^ ^ *   * c   $ ^ ^ ^ ^ ^ ^ ^ ^ ^ ^ ^ *   a *   * ^ ^ ^ ^ ^ ^ ^ ^ ^ ^ ^ ^ ^ ^ ^ ^ ^ ^ u   . *.",
"K     Y ^ ^ ^ ^ ^ ^ ^ ^ ^ ^ ^ ^ ^ ^ z     H 8   6 ^ ^ ^ ^ ^ ^ ^ ^ ^ ^ ^ 7   4 G     M ^ ^ ^ ^ ^ ^ ^ ^ ^ ^ ^ ^ ^ ^ ^ ^ ^ Y     L ",
"c   & ^ ^ ^ ^ ^ ^ ^ ^ ^ ^ ^ ^ ^ ^ ^ &   * ;..   f ^ ^ ^ ^ ^ ^ ^ ^ ^ ^ ^ f   . -.*   ; ^ ^ ^ ^ ^ ^ ^ ^ ^ ^ ^ ^ ^ ^ ^ ^ ^ ^ &   c ",
",   e ^ ^ ^ ^ ^ ^ ^ ^ ^ ^ ^ ^ ^ ^ z     J ..    V ^ ^ ^ ^ ^ ^ ^ ^ ^ ^ ^ V     o.F     V ^ ^ ^ ^ ^ ^ ^ ^ ^ ^ ^ ^ ^ ^ ^ ^ ^ w   < ",
"@   g ^ ^ ^ ^ ^ ^ ^ ^ ^ ^ ^ ^ ^ ^ &   = :.L     E ^ ^ ^ ^ ^ ^ ^ ^ ^ ^ ^ R     ! -.#   ; ^ ^ ^ ^ ^ ^ ^ ^ ^ ^ ^ ^ ^ ^ ^ ^ ^ f   # ",
".   h ^ ^ ^ ^ ^ ^ ^ ^ ^ ^ ^ ^ ^ z     K ,.b   o ^ ^ ^ ^ ^ ^ ^ ^ ^ ^ ^ ^ ^ .   N ,.D     C ^ ^ ^ ^ ^ ^ ^ ^ ^ ^ ^ ^ ^ ^ ^ ^ g   . ",
"*   u ^ ^ ^ ^ ^ ^ ^ ^ ^ ^ ^ ^ ^ &   * :.,.0   5 ^ ^ ^ ^ ^ ^ ^ ^ ^ ^ ^ ^ ^ ;   p ,.-.#   ; ^ ^ ^ ^ ^ ^ ^ ^ ^ ^ ^ ^ ^ ^ ^ ^ u   = ",
"t   & ^ ^ ^ ^ ^ ^ ^ ^ ^ ^ ^ ^ l     K ,.,.@   d ^ ^ ^ ^ ^ ^ ^ ^ ^ ^ ^ ^ ^ y   > ,.,.B     C ^ ^ ^ ^ ^ ^ ^ ^ ^ ^ ^ ^ ^ ^ ^ &   t ",
"J     z ^ ^ ^ ^ ^ ^ ^ ^ ^ ^ ^ &   > >.,.O.    M ^ ^ ^ ^ ^ ^ ^ ^ ^ ^ ^ ^ ^ h   . -.,.-.@   1 ^ ^ ^ ^ ^ ^ ^ ^ ^ ^ ^ ^ ^ ^ u     U ",
":.*   o T ^ ^ ^ ^ ^ ^ ^ ^ ^ l     L ,.,.!     T ^ ^ ^ ^ ^ ^ ^ ^ ^ ^ ^ ^ ^ Z     } ,.,.N     A ^ ^ ^ ^ ^ ^ ^ ^ ^ ^ ^ ^ f     9 ,.",
",./ .   & R ^ ^ ^ ^ ^ ^ ^ ^ &   > ,.,.,.m   . ^ ^ ^ ^ ^ ^ ^ ^ ^ ^ ^ ^ ^ ^ W     K ,.,.*.@   3 ^ ^ ^ ^ ^ ^ ^ ^ ^ ^ ^ u     % @.,.",
",.,.m     o C ^ ^ ^ ^ ^ ^ l     L ,.,.,.r   3 ^ ^ ^ ^ ^ ^ ^ ^ ^ ^ ^ ^ ^ ^ ^ @   b ,.,.,.N     S ^ ^ ^ ^ ^ ^ ^ ^ R 3     # X.,.,.",
",.,.,.v       w R ^ ^ ^ ^ &   , ,.,.,.,.#   u ^ ^ ^ ^ ^ ^ ^ ^ ^ ^ ^ ^ ^ ^ ^ 3   0 ,.,.,.&.@   3 ^ ^ ^ ^ ^ ^ ^ h .     , o.,.,.,.",
",.,.,.,.G .     . 6 M Q k     L ,.,.,.@.    z ^ ^ ^ ^ ^ ^ ^ ^ ^ ^ ^ ^ ^ ^ ^ i   # ,.,.,.,.m     S ^ ^ ^ ^ z &       p =.,.,.,.,.",
",.,.,.,.,.| 9         . .   , ,.,.,.,./     Y ^ ^ ^ ^ ^ ^ ^ ^ ^ ^ ^ ^ ^ ^ ^ l     #.,.,.,.%.O   5 ^ S d @       # U ,.,.,.,.,.,.",
",.,.,.,.,.,.,./ q .         U ,.,.,.,.N   . ^ ^ ^ ^ ^ ^ ^ ^ ^ ^ ^ ^ ^ ^ ^ ^ S     _ ,.,.,.,.n     o         O m &.,.,.,.,.,.,.,.",
",.,.,.,.,.,.,.,.,.@.H a = a ,.,.,.,.,.p   ; ^ ^ ^ ^ ^ ^ ^ ^ ^ ^ ^ ^ ^ ^ ^ ^ ~ .   F ,.,.,.,.#..         > B $.,.,.,.,.,.,.,.,.,.",
",.,.,.,.,.,.,.,.,.,.,.,.,.,.,.,.,.,.,.*   y ^ ^ ^ ^ ^ ^ ^ ^ ^ ^ ^ ^ ^ ^ ^ ^ ^ &   c ,.,.,.,.,.F # 0 N ' ,.,.,.,.,.,.,.,.,.,.,.,.",
",.,.,.,.,.,.,.,.,.,.,.,.,.,.,.,.,.,.,..   . u T ^ ^ ^ ^ ^ ^ ^ ^ ^ ^ ^ ^ ^ E i .   0 ,.,.,.,.,.,.,.,.,.,.,.,.,.,.,.,.,.,.,.,.,.,.",
",.,.,.,.,.,.,.,.,.,.,.,.,.,.,.,.,.,.,.n         : g Z Q ^ ^ ^ ^ ^ ^ ~ V w .       N ,.,.,.,.,.,.,.,.,.,.,.,.,.,.,.,.,.,.,.,.,.,.",
",.,.,.,.,.,.,.,.,.,.,.,.,.,.,.,.,.,.,.,.) 4           . $ : 3 7 5 - .         , ! ,.,.,.,.,.,.,.,.,.,.,.,.,.,.,.,.,.,.,.,.,.,.,.",
",.,.,.,.,.,.,.,.,.,.,.,.,.,.,.,.,.,.,.,.,.,./ p .                       . 0 L ,.,.,.,.,.,.,.,.,.,.,.,.,.,.,.,.,.,.,.,.,.,.,.,.,.",
",.,.,.,.,.,.,.,.,.,.,.,.,.,.,.,.,.,.,.,.,.,.,.,.:._ B s 8 = @ . . = t D @.,.,.,.,.,.,.,.,.,.,.,.,.,.,.,.,.,.,.,.,.,.,.,.,.,.,.,."
};
