/* XPM */
static char *_4431_56cbfb1eca8ce344153f9661e38e2df42a27d0eae0e11f0dbedc5c568a7b1939[] = {
/* columns rows colors chars-per-pixel */
"64 64 233 2 ",
"   c #000B15",
".  c #00131D",
"X  c #011B1C",
"o  c #09191E",
"O  c #101815",
"+  c #192317",
"@  c #2A311B",
"#  c #130D25",
"$  c #021B23",
"%  c #011D2A",
"&  c #091C2E",
"*  c #051722",
"=  c #161A28",
"-  c #0B1E33",
";  c #051E33",
":  c #151B37",
">  c #261A37",
",  c #032126",
"<  c #02242D",
"1  c #0B242D",
"2  c #00292C",
"3  c #0C272B",
"4  c #12272D",
"5  c #022533",
"6  c #0B2432",
"7  c #022A34",
"8  c #0B2B34",
"9  c #022539",
"0  c #0B2539",
"q  c #032B39",
"w  c #0B2D3A",
"e  c #132B33",
"r  c #14233B",
"t  c #122C3B",
"y  c #182639",
"u  c #0C3234",
"i  c #04313B",
"p  c #0C323B",
"a  c #033131",
"s  c #12313E",
"d  c #1C363E",
"f  c #25273C",
"g  c #26393D",
"h  c #6E5E2A",
"j  c #2E1E43",
"k  c #092E41",
"l  c #122C41",
"z  c #0E3541",
"x  c #173846",
"c  c #2A2A46",
"v  c #392848",
"b  c #233C43",
"n  c #283945",
"m  c #36384B",
"M  c #3E2E50",
"N  c #2E3C53",
"B  c #3A3555",
"V  c #4E2C57",
"C  c #532D5A",
"Z  c #562A59",
"A  c #423454",
"S  c #4B395E",
"D  c #483658",
"F  c #54345D",
"G  c #59355E",
"H  c #44264A",
"J  c #5C3C64",
"K  c #5A3664",
"L  c #623C6B",
"P  c #673769",
"I  c #33484E",
"U  c #374554",
"Y  c #3D545D",
"T  c #2B4751",
"R  c #395562",
"E  c #2E6C7C",
"W  c #494456",
"Q  c #44535B",
"!  c #534A58",
"~  c #4E4166",
"^  c #584866",
"/  c #4C5B67",
"(  c #57576B",
")  c #575E73",
"_  c #64456B",
"`  c #6B4B76",
"'  c #694976",
"]  c #744977",
"[  c #695574",
"{  c #74547C",
"}  c #775B7C",
"|  c #55666C",
" . c #5E6B75",
".. c #566D7B",
"X. c #686767",
"o. c #636E77",
"O. c #75657D",
"+. c #667379",
"@. c #76736F",
"#. c #887236",
"$. c #911E45",
"%. c #9B355A",
"&. c #9F2452",
"*. c #84495F",
"=. c #8E586C",
"-. c #9D6C7F",
";. c #B2647A",
":. c #C7983E",
">. c #BC9849",
",. c #93847D",
"<. c #AA8C6A",
"1. c #D5B778",
"2. c #C9A654",
"3. c #377989",
"4. c #7C5C88",
"5. c #786485",
"6. c #6A7A83",
"7. c #767987",
"8. c #627C93",
"9. c #527281",
"0. c #835C8A",
"q. c #875A8B",
"w. c #82638B",
"e. c #88678C",
"r. c #82788C",
"t. c #886793",
"y. c #907698",
"u. c #FF7CAA",
"i. c #CA688E",
"p. c #4D8896",
"a. c #74848D",
"s. c #7A888D",
"d. c #788695",
"f. c #698185",
"g. c #7A95A7",
"h. c #7492AA",
"j. c #838996",
"k. c #938898",
"l. c #89949A",
"z. c #9F929C",
"x. c #8899A4",
"c. c #9598A7",
"v. c #AC99B3",
"b. c #B29DB6",
"n. c #8EA4AB",
"m. c #98A4AA",
"M. c #9AA8B7",
"N. c #9BB2B8",
"B. c #AAA6B7",
"V. c #B6AAB4",
"C. c #A7B5BD",
"Z. c #BDB3BC",
"A. c #B5B9BC",
"S. c #B0A3AD",
"D. c #D3B593",
"F. c #D290A9",
"G. c #EC90AF",
"H. c #C1B0A6",
"J. c #A7B7C6",
"K. c #B4BDC7",
"L. c #AFAEC3",
"P. c #89B2C8",
"I. c #C6BAC8",
"U. c #FFA8C9",
"Y. c #EEB8CE",
"T. c #98C7D5",
"R. c #AEC1C8",
"E. c #BBC5D2",
"W. c #B0C0D0",
"Q. c #B5C9D0",
"!. c #BFD0E0",
"~. c #BEE4F7",
"^. c #CDC3CD",
"/. c #C3C5CA",
"(. c #D1C3CD",
"). c #C2CAD2",
"_. c #CAC8D3",
"`. c #D7CBD6",
"'. c #CDD4D4",
"]. c #C4D3D9",
"[. c #CDD6DD",
"{. c #D6D3DD",
"}. c #DAD9DE",
"|. c #D7D9DB",
" X c #E9D2D9",
".X c #DAE0DC",
"XX c #F4E0DF",
"oX c #D8CFE4",
"OX c #C7D6E5",
"+X c #D3D4E1",
"@X c #DAD5E3",
"#X c #D4DBE5",
"$X c #DCDBE4",
"%X c #D8DCEA",
"&X c #E8CFE5",
"*X c #E4DCE5",
"=X c #E3DEEA",
"-X c #E9D8EB",
";X c #FED7EC",
":X c #F9DFF7",
">X c #FDCFEB",
",X c #DCE2ED",
"<X c #DBE2E7",
"1X c #DAE9F7",
"2X c #DFF1F5",
"3X c #E4E3EB",
"4X c #EBE3EB",
"5X c #E6EAE9",
"6X c #F1E5EE",
"7X c #E7F1EB",
"8X c #E4E6F2",
"9X c #EBE6F2",
"0X c #E4EAF3",
"qX c #EBEAF4",
"wX c #EEEDF9",
"eX c #E4EBFB",
"rX c #F2EBF6",
"tX c #F2EDFA",
"yX c #FCEBFB",
"uX c #F8E6F5",
"iX c #ECF2F3",
"pX c #ECF3FC",
"aX c #EDFCFF",
"sX c #E5F4FA",
"dX c #F3F2F6",
"fX c #F5F9F5",
"gX c #FAFDF6",
"hX c #F4F4FC",
"jX c #FDF5FD",
"kX c #F5FDFE",
"lX c #FEFEFE",
"zX c #FBF4F6",
"xX c #FDFBEC",
/* pixels */
"lXlXlXlXlXlXlXlXlXlXlXlXlXlXlXlXlXlXlXlXlXlXlXlXlXlXlXlXlXlXlXlXlXlXlXfXgXgXgXlXgXlXjXjXlXjXlXlXlXlXlXlXlXlXlXlXlXlXlXlXlXgXlXlX",
"lXlXlXlXlXlXlXlXlXlXlXlXlXlXlXlXlXlXlXlXlXlXlXlXlXlXlXlXlXlXlXlXlXlXjXlXgXgXlXlXjXlXlXlXjXlXlXkXlXlXlXlXlXlXlXlXlXlXlXlXlXlXlXlX",
"lXlXlXlXlXlXlXlXlXlXlXlXlXlXlXlXlXlXlXlXlXlXlXlXlXlXlXlXlXlXlXlXkXlXlXlXkXlXlXlXlX7XfXgXlXlXlXlXlXlXlXlXlXlXlXlXlXlXlXlXlXlXlXlX",
"lXlXlXlXlXlXlXlXlXlXlXlXlXlXlXlXlXlXlXlXlXlXlXlXlXlXlXlXlXlXlXlXlXlXlXlXlXhX3XkX'.|.|.'.7XkXlXfXlXlXlXlXlXlXlXlXlXlXlXlXlXlXlXlX",
"lXlXlXlXlXlXlXlXlXlXlXlXlXlXlXlXlXlXlXlXlXlXlXlXlXlXlXlXlXlXlXlXlXlXlXlXjX9X@X}.7X'.|.5XiX7X7XlXlXlXlXlXlXlXlXlXlXlXlXlXlXlXlXlX",
"lXlXlXlXlXlXlXlXlXlXlXlXlXlXlXlXlXlXlXlXlXlXlXlXlXlXlXlXlXlXlXlXgXlXlXlXhXhXlX5XaXfXxX5XkXsX/.zXlXlXlXlXlXlXlXlXlXlXlXlXlXlXlXlX",
"lXlXlXlXlXlXlXlXlXlXlXlXlXlXlXlXlXlXlXlXlXlXlXlXlXlXlXgXlXgXlXlXlXlXgXlX3X3X.X7XfX7XgXfXiXkX_.'.lXlXlXlXlXlXlXlXlXlXlXlXlXlXlXlX",
"lXlXlXlXlXlXlXlXlXlXlXlXlXlXlXlXlXlXlXlXlXlXlXlXlXlXlXlXlXlXlXlXlXlXlXgX.XiXA.5X5XiXiXiXfXiXA.A.kXlXlXlXlXlXlXlXlXlXlXlXlXlXlXlX",
"lXlXlXlXlXlXlXlXlXlXlXlXlXlXlXlXlXlXlXlXlXlXlXlXlXlXjXlXlXlXlXlXlXgXgXlXlXjXA.@X@X+X1XOX#XK.C.K.dXlXlXlXlXlXlXlXlXlXlXlXlXlXlXlX",
"lXlXlXlXlXlXlXlXlXlXlXlXlXlXlXlXlXkXlXlXlXlXlXlXlXlXlXlXlXlXlXlXfXlXlXlXlXkXJ.x.1XsXg...J.K.C.[.hXlXlXlXjXgXlXlXlXlXlXlXlXlXlXlX",
"lXlXlXlXlXlXlXlXlXlXlXlXlXlXlXlXlXlXlXlXlXlXlXlXlXfXlXlXlXkXlXlXlXlXlXkXhXkXP.3.~.T.3.p.h.J.K.pXlXkXhXlXlXlXlXlXlXgXlXlXlXlXlXlX",
"lXlXlXlXlXlXlXlXlXlXlXlXlXlXlXlXlXlXlXlXlXlXlXlXlXlXlXlXlXlXlXlXlXlXlXkXlXK.p.3.P.h.3.3...M.,XpXdXhXlXlXlXlXjXlXlXlXlXlXlXlXlXlX",
"lXlXlXlXlXlXlXlXlXlXlXlXlXlXlXlXlXlXlXlXlXlXlXlXlXlXlXjX4XlXjXlXkXlXlXlX9X_.J.d.~.P.8.x.K.!.I.9X3XrXdXlXlXlXlXlXlXlXlXgXlXlXlXlX",
"lXlXlXlXlXlXlXlXlXlXlXlXlXlXlXlXlXlXlXlXlXlXlXlXlXlX6X-XI.zXlXjXlXjXjXZ.r.oXI.-XoX=X&XS.oXoXc.r.K.tX5XjXlXlXlXjXgXlXlXlXlXlXlXlX",
"lXlXlXlXlXlXlXlXlXlXlXlXlXlXlXlXlXlXlXlXlXlXlXlXjXlX`.V.S.6XjXjXjXlXlX}.@XyXF.*.e.=.F.*.&XyXoXc.j.jXhX*XkXlXlXlXlXlXlXlXlXlXlXlX",
"lXlXlXlXlXlXlXlXlXlXlXlXlXlXlXlXlXlXlXlXlXlXlXlXlX6X(.X.z.6X-XlXlX0X{.{.zX Xi.Y.>X:XU.;.:X9XwXpX'.3XwXlXlXlXjXlXlXlXlXlXlXlXlXlX",
"lXlXlXlXlXlXlXlXlXlXlXlXlXlXlXlXlXlXlXlXlXkXlXlXlXjX*X`.tX6XqXlX,X0X3X-XrXY.$.u.U.G.%.G.yX9XqX8X@X4X3XqXkXlXlXlXjXlXyXyXlXlXjXlX",
"lXlXlXlXlXlXlXlXlXlXlXlXlXlXlXlXlXlXlXlXlXlXlXlXlXlXlXtX3XrX*X8X1XhX{.*XqX;Xi.&.%.%.F.:XuXwXpX=X*XqXqXqX3XqXlXlXlXjX`.I.lXlXlXlX",
"lXlXlXlXlXlXlXlXlXlXlXlXlXlXlXlXlXlXlXlXlXlXkXlXlXlXlX*X3XkX%X[.hX8XrX{.pX$X X>XY.:XyXuXeXsX=XoXqXrXqX8X0X3X9XlX6X(.(.`.-XlXjXlX",
"lXlXlXlXlXlXlXlXlXlXlXlXlXlXlXlXlXlXlXlXlXlXlXlXlXlXqX*XhX3XpX,X,X=XjX^.l.iX/./.-XjXwXwX1XOX=XyXrXqXwXqXqXtX3X*X6XV.! H.`.lXlXlX",
"lXlXlXlXlXlXlXlXlXlXlXlXlXlXlXlXlXlXlXgXlXlXlXgXlXlX}.qX8XkX#XK.#XlXyXzX,.H.XXXX XV.V.+X#X8XwX9XqX4XwXqXwXqX$X@X-X*XZ.^.*XzXlXlX",
"lXlXlXlXlXlXlXlXlXlXlXlXlXlXlXlXlXlXlXlXlXgXlXlXgX4XqXwXsXa.y & n +.'. XD.<.D.<.@.k.E.pXhXtX9X9XrXqXwX9XqX$X{.tXzX4XyXjXlXlXlXlX",
"lXlXlXlXlXlXlXlXlXlXlXlXlXlXlXlXlXlXlXlXlXgXlXlXlX3X3XhXj.  6 1 X X = @.1.:.>.1.xXkXiXwX9X8XrXuX6X9XtX8X%X8XwXtX9X4XjXlXlXlXlXjX",
"lXlXlXlXlXlXlXlXlXlXlXlXlXlXlXlXlXlXlXlXgXlXlXlXlX}.eXkXx.% e 1 3 4 o + #.2.>.h X.C.pXiX9XwXtX9XqXtX=X%X3XtXqX9X4X6XlXlXlXlXjXlX",
"lXlXlXlXlXlXlXlXlXlXlXlXlXlXlXlXlXkXgXlXlXlXlXlXlX$XpXaXOXT w t d u z 3 + @ @ O * $ / OXhXqXwXqXwX=XoXwXwX9XqXqXqX3XlXjXlXlXkXlX",
"lXlXlXlXlXlXlXlXlXlXlXlXlXlXlXlXlXlXlXgXlXlXlXjXlXsX].o.t < 5 q 5 9 q w 8 1 < 3 6 6 % t K.pX1XqXqX+XqXqXwXqXtXqXtX3XlXlXlXlXlXlX",
"lXlXlXlXlXlXlXlXlXlXlXlXlXlXlXlXlXlXlXlXlXlXlXlXlXM.8 % 6 7 5 5 7 7 7 7 u u 7 6 9 7 t % ; J.kX9XoX8XwXwXwX9XqXqXqX$XjXlXlXjXlXlX",
"lXlXlXlXlXlXlXlXlXlXlXlXlXlXlXlXgXlXlXlXlXkXkXlXs.$ , < 5 < w < , 2 q 7 , u p 5 9 < < 8 9 9 M.wX+XhXqXwXqXqXqX9XhX3XdXlXlXlXlXlX",
"lXlXlXlXlXlXlXlXlXlXlXlXlXlXlXlXlXgXlXfXlXkXkX6.$ 6 7 u 5 p 8 7 a 2 7 7 2 7 z x q i i p w % &  .1X8XqXqX3XtXdXqXqX$XlXlXlXlXlXlX",
"lXlXlXlXlXlXlXlXlXlXlXlXlXlXlXlXlXlXkXlXkXkX6.. 6 u w 7 z w q p u p 9 9 i 7 k x x p u 8 7 6 0 - #XhX8XwXqXwX0XqXqX$XlXlXfXlXlXlX",
"lXlXlXlXlXlXlXlXlXlXlXlXlXlXlXlXgXlXlXlXlXj.. 6 s 7 i 7 < < 5 < % w l l k q 5 q l 6 w p 8 8 z 9 d.hX8XwXrXqX4XwX5XiXkXlXlXlXgXlX",
"lXlXlXlXlXlXlXkXlXlXkXlXlXlXlXlXlXlXkXlXx.$ 1 d 7 7 < q 7 5 0 < 0 6 ; 0 k q 7 5 5 0 5 5 2 7 7 9 4 ].kX%XeXwXpXpXm.pXlXkXlXlXgXlX",
"lXlXlXlXlXkXK.6.| Q o.E.kXkXlXlXlXlXkXN.$ 0 p q 5 7 0 - ; l : l - 6 6 9 7 i q 7 0 < 5 7 q 7 9 5 < x OXaXhX1XK./ . 6.kXkXlXgXgXgX",
"lXzXlXkXE.I $ * o 3 o * m.kXlXlXjXkX!.3 % x q 5 7 7 ; l N B S S B c r q 7 9 z 7 9 7 7 5 5 7 9 6 7 < T M.8.N - ; 6 & E.lXjXlXlXgX",
"gXjXlXR., , 5 d 6.C.+.+ X.lXkXkXkX<Xe % t 0 % q 5 5 l x N ) t.' S B B : ; 9 q z < 5 7 7 7 7 5 5 < 7 $ & & * 8 7 q $ +.lXgXlXjXlX",
"fXlXkXI , < z 1XJ.| U ! {.lXlXlX].g , 8 w p 9 5 5 t l - r B 4.q.C ` 5.D : r 5 w 8 7 5 7 7 7 5 1 7 6 6 6 6 6 7 7 5 , n kXkXlXlXlX",
"gXlXiXg 6 & t W.aXaXkXlXkXkX0Xj.3 , 2 p w 5 7 5 w 8 % 0 - y K P H 4.y.5.c - 0 5 p 8 7 2 2 2 < < < < % 8 5 6 7 2 7 % d wXlXlXlXkX",
"gXgXkX .* l % 1 Y a.l.g.a.| y $ 3 7 < p 5 9 9 5 8 d 7 5 5 r K C K K ' ' B : 9 7 7 i 7 7 7 7 7 5 7 e 6 < 8 5 7 7 7 % g wXlXjXlXlX",
"lXlXkXpXU   4 1 X , X , X $ 1 8 5 % 8 z 5 7 7 7 3 u x 2 5 6 M ' q.L F V ~ c % q 5 7 w w i u i 7 < 5 5 5 7 i < a 2 $ o.kXlXkXlXlX",
"lXlXkXlXaXj.f $ , , , 2 3 , $ $ $ R x < w 5 % R l.  T x < 6 M ' 4.4.C K S c r 9 5 5 5 5 9 q 7 9 q 7 5 5 5 7 7 2 8 , E.lXlXlXlXkX",
"lXlXlXlXlXlXsXB.6.Y T N n Y / 7.!.g.5 0 5 8 $ n.kXl.* 1 p & A F 4.L K q._ B r 6 7 9 6 6 ; 9 9 9 9 q q 7 7 2 7 7 X | kXlXlXlXlXgX",
"lXlXlXlXjXjXlXkXkXeXOX1XkXkXkXlXM.% % 5 8 % b sXlXlX).Q d r A K C V ] q.t.B - 9 9 9 9 9 9 9 9 9 q 5 7 7 7 7 3 , g sXlXlXjXlXfXlX",
"lXlXjXlXlXgXlX5Xo.B ) | c.aXkXa.. 8 8 7 7 , n.kXlXjXlXaXK.& M F ] P P q.} B - 5 7 5 9 9 9 7 9 9 q 7 q < 7 6 * n 0XkXlXlXlXlXgXlX",
"jXlXlXgXgXgXgX+.  ( ) ( ) 6.I * y % < u $ R kXkXkXlXkXlXsXf c _ t.q.Z P F v t 5 7 7 5 5 7 9 7 q q % 8 8 $ *  .aXkXlXlXlXlXgXlXgX",
"lXgXlXlXlXkXkXg 4 4 4 6 8 % < 8 < 3 7 , g sXaXkXlXgXlXkXsXn > ^ q.q.K ] 4.j - 1 7 7 7 8 7 7 7 2 5 < % $ Q K.kXlXkXlXdXlXgXlXlXgX",
"lXkXlXlXlXlXkXs.  3 8 8 < 7 u < 8 3 X T 2XkXlXlXgXlXlXkXlXB f D L P Z q.4.' y $ $ X X X X X $ X $ g 6.].lXkXlXlXlXlXlXlXlXlXlXlX",
"lXlXlXlXjXlXgXkX6., $ % 5 < % < $ 4 a.kXlXjXgXgXgXgXlXkXkX( # F 4.4.P ] 4.7.eXL.l.a.+.| | +.s.x.].aXkXkXlXlXlXlXlXjXfXlXkXlXlXlX",
"lXlXjXlXlXlXkXlXkX].f.I d b U / x.<XkXlXzXlXlXlXgXgXlXkXlXs.= D 4.4.4.Z V ' jXjXlXkXkXkXlXkXkXlXkXlXkXlXlXlXlXlXgXgXlXkXlXlXlXlX",
"lXlXlXlXlXlXlXlXlXlXlXkXaXhXkXlXlXlXkXlXlXlXlXlXlXjXlXkXkXE.= f L q.L Z { ` &XgXlXlXfXgXgXgXfXlXkXlXjXlXlXgXlXgXgXlXlXlXlXlXlXlX",
"lXlXlXlXlXlXlXlXlXlXlXlXkXlXlXlXlXlXlXlXlXlXlXlXlXlXlXlXlXkXQ = F G K G q.5.b.jXjXzXgXlXgXlXlXjXlXjXlXfXlXgXgXlXgXlXlXlXlXlXlXlX",
"lXlXlXlXlXlXlXlXlXlXlXlXlXlXlXlXlXlXlXlXlXlXlXgXlXlXkXkXkXkX'.= v J C V _ ] _ :XlXjXlXlXlX(.&X-X-XlXlXlXlXlXlXgXlXlXlXlXlXlXlXlX",
"lXlXlXlXlXlXlXlXlXlXlXlXlXlXlXlXlXlXlXlXlXlXlXlXlXlXlXlXlXlXlXc.# D J e.` F H e.yXlXjXlXL._ G ` ^ 5.uXlXjXlXlXlXlXlXlXlXlXlXlXlX",
"lXlXlXlXlXlXlXlXlXlXlXlXlXlXlXlXlXlXlXlXlXlXlXgXlXlXlXlXlXlXkXkXj.# ~ e.e.G L { y.uXjX5.[ ) j M [ _ v.lXlXjXjXlXlXlXlXlXlXlXlXgX",
"lXlXlXlXlXlXlXlXlXlXlXlXlXlXlXlXlXlXlXlXlXlXlXlXgXlXlXlXlXfXlXkXlXc.> A [ F L t.4.J v.5.S j j S r.F b.jXjXlXlXlXlXlXlXlXlXlXlXlX",
"lXlXlXlXlXlXlXlXlXlXlXlXlXlXlXlXlXlXlXlXlXlXlXlXlXgXlXlXlXlXkXlXkXlX{.W > D V G _ _ V t.y.J ` ` H O.jXjXjXjXlXlXlXlXlXlXlXlXlXlX",
"lXlXlXlXlXlXlXlXlXlXlXlXlXlXlXlXlXlXlXlXlXlXlXlXlXlXlXgXlXlXlXlXlXhXlXlXS.W v v } e.} G G J w.4.k.jXlXlXlXlXlXlXlXlXlXlXlXlXlXlX",
"lXlXlXlXlXlXlXlXlXlXlXlXlXlXlXlXlXlXlXlXlXlXlXgXlXlXlXlXgXlXlXlXgXlXlXkXlXhXI.r.O.[ ( ! ^ 5.b.oXjXlXlXlXlXlXlXlXlXlXlXlXlXlXlXlX",
"lXlXlXlXlXlXlXlXlXlXlXlXlXlXlXlXlXlXlXlXlXlXlXlXlXlXgXlXlXlXlXlXgXlXlXlXlXlXlXlXjXyXrXtXjXlXlXlXlXlXlXlXlXgXlXlXlXlXlXjXlXlXlXlX",
"lXlXlXlXlXlXlXlXlXlXlXlXlXlXlXlXlXlXlXlXlXlXlXlXlXlXlXlXlXlXlXlXlXlXgXlXlXjXjXlXlXlXlXlXlXjXzXjXlXlXlXlXgXlXlXgXlXlXlXlXlXlXlXlX",
"lXlXlXlXlXlXlXlXlXlXlXlXlXlXlXlXlXlXlXlXlXlXlXlXlXlXlXlXlXlXlXlXgXlXgXgXlXlXlXlXlXlXlXlXlXlXlXlXlXgXlXlXlXgXgXlXlXlXlXlXlXlXlXlX",
"lXlXlXlXlXlXlXlXlXlXlXlXlXlXlXlXlXlXlXlXlXlXlXlXlXlXlXlXlXlXlXlXgXlXgXlXgXlXgXlXlXlXkXkXlXlXlXgXlXlXlXgXlXgXlXgXlXlXlXlXlXlXlXlX",
"lXlXlXlXlXlXlXlXlXlXlXlXlXlXlXlXlXlXlXlXlXlXlXlXlXlXlXlXlXlXlXlXlXlXlXlXlXgXlXkXkXkXkXlXlXlXlXlXlXlXlXlXlXgXlXlXlXlXlXlXlXlXlXlX",
"lXlXlXlXlXlXlXlXlXlXlXlXlXlXlXlXlXlXlXlXlXlXlXlXlXlXlXlXlXlXlXlXlXlXlXlXlXgXgXlXlXlXlXlXlXlXlXkXlXlXlXlXlXlXlXlXlXlXlXlXlXlXlXlX",
"lXlXlXlXlXlXlXlXlXlXlXlXlXlXlXlXlXlXlXlXlXlXlXlXlXlXlXlXlXlXlXlXlXlXlXlXlXlXlXgXlXlXjXkXlXlXkXlXlXlXlXlXlXlXlXlXlXjXlXlXlXlXlXlX"
};
